<?xml version="1.0" encoding="UTF-8" standalone="no"?>
<!-- Created with Inkscape (http://www.inkscape.org/) -->

<svg
   width="192.61287mm"
   height="199.01617mm"
   viewBox="0 0 192.61287 199.01618"
   version="1.1"
   id="svg5"
   inkscape:version="1.1.2 (b8e25be833, 2022-02-05)"
   sodipodi:docname="aaa.svg"
   xmlns:inkscape="http://www.inkscape.org/namespaces/inkscape"
   xmlns:sodipodi="http://sodipodi.sourceforge.net/DTD/sodipodi-0.dtd"
   xmlns="http://www.w3.org/2000/svg"
   xmlns:svg="http://www.w3.org/2000/svg">
  <sodipodi:namedview
     id="namedview7"
     pagecolor="#ffffff"
     bordercolor="#666666"
     borderopacity="1.0"
     inkscape:pageshadow="2"
     inkscape:pageopacity="0.0"
     inkscape:pagecheckerboard="0"
     inkscape:document-units="mm"
     showgrid="false"
     inkscape:zoom="0.45291836"
     inkscape:cx="453.72415"
     inkscape:cy="677.82635"
     inkscape:window-width="1920"
     inkscape:window-height="1017"
     inkscape:window-x="-8"
     inkscape:window-y="-8"
     inkscape:window-maximized="1"
     inkscape:current-layer="layer1" />
  <defs
     id="defs2">
    <style
       id="style824">.cls-1{fill:#fff;fill-rule:evenodd;}</style>
  </defs>
  <g
     inkscape:label="Layer 1"
     inkscape:groupmode="layer"
     id="layer1"
     transform="translate(46.575712,5.7494491)">
    <g
       id="g973"
       transform="matrix(0.26536225,0,0,0.26536225,-46.575712,-5.7549552)"
       style="fill:#ff5c0b;fill-opacity:1">
	<path
   class="st0"
   d="m 373.8,349.1 c 13.4,1.9 26.2,2.9 38.2,2.9 47.7,0 98.7,-18 98.7,-68.5 0,-38.4 -29.6,-68.5 -67.5,-68.5 -40.9,0 -69.5,35.6 -69.5,86.6 v 47.5 z M 252.7,683.2 h 27.1 c 15,0 27.2,-12.2 27.2,-27.2 V 402.7 c -26.6,-7.5 -54.1,-17.5 -81.4,-29.9 V 656 c -0.1,15 12.1,27.2 27.1,27.2 m 50.8,66.8 h -74.6 c -38.8,0 -70.3,-31.5 -70.3,-70.3 v -342 C 96.8,300.2 39.8,251 0,192.4 l 55.3,-37.6 c 26.8,39.4 63.5,74.5 104.5,103.7 C 173.2,105.1 309.5,-13.7 469.4,1.3 606.2,14.1 715.3,125.8 725.1,262.9 737,428.5 605.5,567.2 442.2,567.2 v -66.8 c 127.7,0 229.9,-111 215.4,-241.5 C 646.5,159.4 566.5,79.3 467,68.2 336.4,53.6 225.5,155.9 225.5,283.6 v 15.2 c 27,14.1 54.6,25.6 81.4,34.4 v -31.4 c 0,-88.9 57.3,-153.5 136.3,-153.5 74.1,0 134.3,60.7 134.3,135.3 0,80.9 -66.5,135.3 -165.6,135.3 -12.1,0 -24.9,-0.8 -38.2,-2.4 v 263.3 c 0.1,38.7 -31.4,70.2 -70.2,70.2"
   id="path967"
   style="fill:#ff5c0b;fill-opacity:1" />

	
	
</g>
  </g>
  <style
     type="text/css"
     id="style965">
	.st0{fill:#FF5C0B;}
</style>
</svg>
