<svg id="svg" version="1.1" xmlns="http://www.w3.org/2000/svg" xmlns:xlink="http://www.w3.org/1999/xlink" width="400" height="125" viewBox="0, 0, 400,125"><g id="svgg"><path id="path0" d="M52.083 29.395 C 51.442 29.614,50.467 29.944,49.917 30.129 C 47.561 30.923,46.907 31.186,46.743 31.404 C 46.648 31.531,46.259 31.719,45.878 31.821 C 45.498 31.924,45.013 32.156,44.802 32.337 C 44.280 32.783,43.357 33.426,42.750 33.766 C 42.475 33.920,42.004 34.261,41.703 34.523 C 41.401 34.785,41.063 35.000,40.950 35.000 C 40.682 35.000,37.000 38.692,37.000 38.960 C 37.000 39.073,36.756 39.447,36.458 39.791 C 35.854 40.489,35.681 40.750,35.103 41.833 C 34.883 42.246,34.546 42.725,34.355 42.898 C 34.163 43.071,33.960 43.462,33.902 43.767 C 33.845 44.073,33.626 44.508,33.415 44.736 C 33.205 44.963,32.978 45.472,32.912 45.866 C 32.847 46.261,32.652 46.782,32.480 47.025 C 32.308 47.268,32.059 48.032,31.927 48.722 C 31.795 49.412,31.556 50.226,31.397 50.530 C 31.117 51.062,30.986 52.097,30.728 55.816 C 30.602 57.623,31.090 63.326,31.429 64.007 C 31.545 64.241,31.764 64.913,31.917 65.501 C 32.069 66.089,32.338 66.772,32.514 67.019 C 32.689 67.266,32.833 67.667,32.833 67.909 C 32.833 68.410,33.263 69.333,33.497 69.333 C 33.582 69.333,33.702 69.600,33.763 69.925 C 33.824 70.250,34.127 70.820,34.437 71.191 C 34.747 71.562,35.000 71.965,35.000 72.086 C 35.000 72.208,35.187 72.531,35.417 72.803 C 35.646 73.075,35.833 73.389,35.833 73.501 C 35.833 73.612,36.478 74.351,37.266 75.142 C 38.054 75.934,38.792 76.759,38.906 76.977 C 39.194 77.526,42.484 80.812,43.035 81.099 C 43.283 81.229,43.677 81.525,43.910 81.758 C 44.630 82.478,45.824 82.122,46.166 81.084 C 46.474 80.153,46.051 79.498,43.428 76.842 C 40.773 74.153,39.701 72.993,39.089 72.149 C 37.845 70.433,37.266 69.514,37.057 68.921 C 36.928 68.557,36.679 68.107,36.505 67.921 C 36.330 67.735,36.114 67.259,36.025 66.863 C 35.936 66.467,35.746 66.013,35.602 65.854 C 35.458 65.695,35.232 65.006,35.099 64.324 C 34.967 63.642,34.690 62.708,34.484 62.250 C 33.868 60.879,33.906 53.003,34.535 51.664 C 34.772 51.161,35.044 50.235,35.141 49.605 C 35.238 48.976,35.427 48.338,35.560 48.189 C 35.693 48.039,35.885 47.608,35.985 47.230 C 36.086 46.852,36.313 46.359,36.491 46.133 C 36.668 45.907,36.939 45.410,37.092 45.028 C 37.244 44.646,37.435 44.333,37.515 44.333 C 37.595 44.333,37.848 43.964,38.077 43.512 C 38.306 43.060,38.571 42.642,38.666 42.584 C 38.761 42.525,38.939 42.239,39.061 41.947 C 39.326 41.316,43.380 37.225,43.893 37.070 C 44.089 37.011,44.475 36.756,44.750 36.502 C 45.259 36.033,45.791 35.714,46.833 35.255 C 47.154 35.113,47.604 34.887,47.833 34.752 C 48.063 34.616,48.512 34.389,48.833 34.247 C 49.493 33.954,49.888 33.758,50.524 33.408 C 50.766 33.275,51.554 33.121,52.274 33.066 C 53.194 32.996,53.725 32.867,54.060 32.632 C 55.264 31.785,61.856 31.789,63.500 32.637 C 64.196 32.997,64.668 33.116,65.465 33.132 C 66.201 33.147,66.647 33.248,66.965 33.472 C 67.213 33.647,67.844 33.913,68.367 34.064 C 68.889 34.215,69.366 34.418,69.427 34.516 C 69.487 34.614,69.861 34.833,70.257 35.003 C 70.653 35.173,71.056 35.460,71.154 35.642 C 71.251 35.824,71.550 36.021,71.819 36.080 C 72.087 36.139,72.501 36.368,72.739 36.588 C 73.552 37.341,75.164 37.485,75.875 36.868 C 76.782 36.081,75.519 34.073,73.389 32.916 C 71.627 31.958,71.396 31.837,70.833 31.574 C 70.512 31.424,69.853 31.161,69.368 30.990 C 68.883 30.820,68.300 30.534,68.073 30.355 C 67.846 30.177,67.268 29.980,66.789 29.918 C 66.309 29.856,65.617 29.643,65.250 29.444 C 64.153 28.850,53.797 28.812,52.083 29.395 M116.168 37.162 C 115.730 37.439,115.696 39.573,115.681 67.938 C 115.668 93.494,115.688 95.643,115.942 95.855 C 116.383 96.221,131.219 96.280,131.772 95.918 L 132.167 95.659 132.170 85.538 C 132.175 72.321,131.786 73.349,136.858 73.146 C 140.330 73.006,140.737 72.951,141.184 72.560 C 141.332 72.431,141.932 72.245,142.518 72.148 C 143.104 72.050,143.771 71.839,144.000 71.678 C 144.229 71.517,144.754 71.235,145.167 71.051 C 147.081 70.197,148.981 67.455,149.183 65.252 C 149.457 62.257,149.564 61.566,149.807 61.190 C 150.398 60.279,150.225 50.820,149.575 48.500 C 149.434 47.996,149.273 46.848,149.218 45.950 C 149.133 44.564,149.049 44.210,148.670 43.616 C 148.424 43.231,147.988 42.542,147.700 42.083 C 146.815 40.672,144.947 39.137,143.840 38.910 C 143.523 38.845,143.073 38.656,142.840 38.490 C 142.603 38.321,141.828 38.104,141.083 37.998 C 140.350 37.894,139.337 37.691,138.833 37.547 C 137.235 37.090,116.830 36.744,116.168 37.162 M154.333 37.148 C 152.259 37.317,152.167 37.505,152.167 41.546 C 152.167 45.846,151.427 45.500,160.603 45.500 L 167.798 45.500 168.316 45.016 L 168.833 44.533 168.833 41.037 C 168.833 37.990,168.798 37.511,168.558 37.312 C 168.262 37.066,156.942 36.936,154.333 37.148 M206.437 37.214 C 205.935 37.581,205.919 38.617,206.396 39.881 C 206.719 40.736,206.845 41.448,206.913 42.798 C 207.042 45.360,207.171 46.316,207.503 47.168 C 207.665 47.581,207.845 48.594,207.903 49.418 C 208.051 51.505,208.321 53.448,208.586 54.333 C 208.709 54.746,208.895 56.021,209.000 57.167 C 209.105 58.313,209.293 59.550,209.417 59.917 C 209.541 60.283,209.764 61.858,209.911 63.417 C 210.059 64.975,210.283 66.550,210.411 66.917 C 210.538 67.283,210.725 68.483,210.827 69.583 C 210.929 70.683,211.190 72.408,211.408 73.417 C 211.626 74.425,211.850 76.106,211.907 77.153 C 211.982 78.553,212.101 79.258,212.355 79.820 C 212.621 80.408,212.733 81.139,212.845 83.000 C 212.994 85.491,213.131 86.308,213.575 87.372 C 213.717 87.711,213.834 88.460,213.835 89.036 C 213.837 90.572,214.275 93.616,214.641 94.640 C 215.207 96.224,214.002 96.083,226.989 96.083 C 240.180 96.083,239.042 96.234,239.228 94.460 C 239.287 93.894,239.478 92.902,239.653 92.257 C 239.848 91.533,240.012 90.194,240.079 88.766 C 240.199 86.212,240.410 84.798,240.749 84.266 C 240.899 84.032,241.006 83.034,241.075 81.250 C 241.187 78.321,241.395 76.815,241.765 76.251 C 241.928 76.002,242.063 74.998,242.182 73.150 C 242.428 69.313,242.507 68.646,242.756 68.258 C 242.877 68.070,243.021 67.279,243.076 66.500 C 243.229 64.351,243.501 62.048,243.755 60.750 C 243.881 60.108,244.105 58.533,244.253 57.250 C 244.400 55.967,244.626 54.279,244.753 53.500 C 244.881 52.721,245.031 51.483,245.086 50.750 C 245.141 50.017,245.334 48.667,245.515 47.750 C 245.695 46.833,245.912 45.092,245.997 43.880 C 246.173 41.351,246.425 39.796,246.764 39.140 C 247.076 38.536,247.063 37.831,246.730 37.356 L 246.461 36.971 238.355 37.036 C 232.748 37.081,230.111 37.161,229.800 37.293 C 229.155 37.569,229.035 38.225,228.911 42.167 C 228.800 45.684,228.689 46.648,228.245 47.956 C 228.041 48.557,227.955 50.139,227.833 55.566 C 227.747 59.334,227.641 62.642,227.596 62.917 C 227.551 63.192,227.472 63.686,227.421 64.016 C 227.356 64.435,227.207 64.671,226.927 64.799 C 226.309 65.080,226.186 64.775,226.002 62.519 C 225.895 61.215,225.734 60.296,225.553 59.952 C 225.318 59.505,225.251 58.647,225.147 54.750 C 225.001 49.278,224.888 47.793,224.555 47.000 C 224.301 46.393,224.283 46.211,223.989 41.190 C 223.775 37.542,223.731 37.410,222.636 37.176 C 221.367 36.903,206.815 36.938,206.437 37.214 M77.603 39.763 C 76.813 40.488,76.804 41.783,77.579 42.927 C 77.811 43.268,78.001 43.667,78.003 43.815 C 78.005 43.963,78.230 44.413,78.503 44.817 C 78.776 45.220,79.000 45.641,79.000 45.753 C 79.000 45.864,79.142 46.136,79.316 46.356 C 79.489 46.577,79.745 47.140,79.884 47.607 C 80.022 48.075,80.264 48.705,80.421 49.009 C 80.687 49.523,80.854 50.410,81.109 52.667 C 81.166 53.171,81.328 53.808,81.468 54.083 C 81.836 54.802,81.778 56.405,81.350 57.389 C 81.158 57.832,80.998 58.507,80.995 58.889 C 80.992 59.271,80.836 59.996,80.650 60.500 C 80.463 61.004,80.165 61.904,79.987 62.500 C 79.810 63.096,79.584 63.610,79.485 63.644 C 79.386 63.677,79.161 64.014,78.984 64.394 C 78.551 65.320,77.484 66.796,76.667 67.599 C 76.025 68.230,75.108 69.000,75.000 69.000 C 74.933 69.000,74.609 69.215,74.278 69.478 C 72.922 70.555,70.324 70.335,69.973 69.113 C 69.863 68.730,69.636 68.218,69.470 67.974 C 69.018 67.315,69.039 64.353,69.504 63.038 C 69.689 62.513,69.913 61.400,70.000 60.565 C 70.172 58.926,70.265 58.557,70.604 58.159 C 70.725 58.017,70.936 57.366,71.074 56.713 C 71.247 55.890,71.453 55.395,71.745 55.103 C 72.052 54.797,72.167 54.505,72.167 54.033 C 72.167 53.601,72.276 53.286,72.494 53.089 C 72.674 52.926,72.908 52.521,73.015 52.188 C 73.122 51.856,73.306 51.471,73.426 51.333 C 73.763 50.944,74.298 49.601,74.360 48.984 C 74.469 47.911,72.977 47.727,71.131 48.587 C 70.646 48.812,70.069 48.997,69.847 48.998 C 69.409 49.000,69.025 49.312,67.283 51.083 C 66.032 52.354,65.833 52.706,65.833 53.640 C 65.833 53.981,65.711 54.434,65.561 54.648 C 64.851 55.661,64.164 57.410,63.903 58.865 C 63.750 59.718,63.519 60.707,63.389 61.062 C 63.260 61.416,63.084 62.251,63.000 62.917 C 62.869 63.947,62.417 65.403,61.810 66.750 C 61.476 67.489,59.990 69.358,59.137 70.111 C 59.016 70.218,58.364 70.872,57.688 71.565 C 57.012 72.257,56.299 72.873,56.104 72.933 C 55.909 72.993,55.324 73.445,54.804 73.937 C 54.284 74.430,53.773 74.833,53.669 74.833 C 53.404 74.833,50.988 77.314,50.583 78.000 C 50.400 78.312,50.111 78.833,49.941 79.158 C 49.771 79.484,49.523 79.873,49.389 80.024 C 49.256 80.175,49.006 80.737,48.835 81.274 C 48.663 81.811,48.413 82.550,48.279 82.917 C 48.053 83.532,47.858 85.082,47.492 89.167 C 47.414 90.037,47.298 91.294,47.236 91.959 C 47.109 93.307,47.435 94.531,48.004 94.835 C 48.197 94.939,52.160 95.000,58.663 95.000 L 69.015 95.000 69.411 94.604 C 69.846 94.170,69.933 93.705,70.072 91.106 C 70.141 89.821,70.252 89.269,70.580 88.575 C 70.811 88.087,71.000 87.439,71.000 87.135 C 71.000 86.832,71.145 86.321,71.322 86.000 C 71.498 85.679,71.836 85.042,72.072 84.583 C 72.890 82.996,73.369 82.414,76.458 79.253 C 77.765 77.916,78.833 76.757,78.833 76.677 C 78.833 76.597,79.302 75.967,79.875 75.277 C 81.156 73.736,81.559 73.142,82.020 72.125 C 82.217 71.690,82.447 71.333,82.532 71.333 C 82.616 71.333,82.840 70.977,83.030 70.542 C 83.219 70.106,83.476 69.634,83.599 69.492 C 83.723 69.350,83.941 68.903,84.083 68.500 C 84.226 68.097,84.450 67.647,84.583 67.500 C 84.715 67.354,84.935 66.713,85.071 66.076 C 85.207 65.438,85.460 64.643,85.633 64.308 C 85.843 63.901,85.986 63.153,86.062 62.058 C 86.125 61.155,86.355 59.532,86.573 58.451 L 86.971 56.484 86.642 54.951 C 86.462 54.107,86.204 52.526,86.070 51.437 C 85.897 50.030,85.731 49.325,85.498 48.997 C 85.317 48.743,85.064 48.036,84.936 47.426 C 84.809 46.816,84.593 46.190,84.456 46.034 C 84.320 45.878,84.114 45.450,83.998 45.083 C 83.882 44.717,83.657 44.229,83.499 44.000 C 83.340 43.771,83.154 43.396,83.086 43.167 C 82.974 42.795,82.718 42.403,81.606 40.902 C 80.378 39.244,78.690 38.764,77.603 39.763 M308.083 46.770 C 307.442 46.993,306.839 47.278,306.743 47.405 C 306.648 47.531,306.270 47.716,305.903 47.815 C 305.536 47.913,305.089 48.127,304.909 48.289 C 304.730 48.451,304.297 48.797,303.948 49.058 C 303.598 49.319,303.187 49.795,303.035 50.114 C 302.796 50.616,301.583 51.472,301.388 51.277 C 301.358 51.247,301.247 50.778,301.142 50.236 C 300.846 48.713,301.511 48.833,293.385 48.833 C 286.182 48.833,285.648 48.871,285.294 49.400 C 285.227 49.501,285.171 59.903,285.169 72.516 L 285.167 95.448 285.517 95.766 C 286.009 96.211,300.102 96.356,300.764 95.923 L 301.157 95.665 301.207 82.624 L 301.257 69.583 301.729 68.500 C 302.322 67.140,303.192 66.205,303.991 66.069 C 304.317 66.014,304.778 65.832,305.017 65.665 C 305.598 65.256,308.982 65.025,309.907 65.330 C 310.639 65.572,311.373 66.602,311.761 67.931 C 311.897 68.397,312.152 68.933,312.328 69.122 C 312.504 69.311,312.762 69.739,312.901 70.072 C 313.201 70.789,314.206 71.789,314.940 72.101 C 315.228 72.223,315.753 72.617,316.107 72.977 C 316.769 73.650,317.974 74.465,319.000 74.932 C 319.321 75.079,319.734 75.338,319.919 75.508 C 320.104 75.678,320.542 75.938,320.894 76.085 C 321.246 76.232,321.694 76.501,321.890 76.684 C 322.086 76.866,322.565 77.096,322.956 77.194 C 323.347 77.292,323.667 77.432,323.667 77.503 C 323.667 77.575,323.929 77.789,324.250 77.978 C 325.043 78.446,324.988 78.774,324.042 79.211 C 323.287 79.560,322.976 79.581,317.381 79.664 C 312.263 79.739,311.477 79.785,311.241 80.021 C 310.603 80.660,310.780 85.340,311.513 87.200 C 311.689 87.647,311.833 88.321,311.833 88.698 C 311.833 90.464,315.401 94.482,317.500 95.081 C 317.729 95.147,318.195 95.388,318.536 95.619 C 318.958 95.904,319.515 96.079,320.286 96.168 C 320.908 96.240,321.792 96.476,322.250 96.691 C 323.877 97.457,332.040 97.329,334.167 96.505 C 334.579 96.345,335.234 96.165,335.622 96.106 C 337.592 95.803,341.939 92.430,342.229 90.980 C 342.283 90.712,342.474 90.335,342.655 90.141 C 342.836 89.947,343.028 89.555,343.081 89.269 C 343.135 88.984,343.245 88.450,343.325 88.083 C 344.024 84.876,344.117 80.737,343.544 78.333 C 343.358 77.554,343.156 76.634,343.095 76.289 C 342.820 74.734,340.758 71.833,339.928 71.833 C 339.789 71.833,339.431 71.566,339.133 71.238 C 338.835 70.911,338.065 70.381,337.421 70.060 C 336.202 69.454,335.488 69.049,334.500 68.406 C 334.179 68.197,333.599 67.942,333.211 67.841 C 332.537 67.663,331.965 67.358,330.788 66.545 C 330.492 66.341,330.005 66.045,329.705 65.888 C 329.356 65.705,329.109 65.418,329.019 65.092 C 328.748 64.114,328.653 64.128,335.983 64.036 C 341.840 63.963,342.686 63.920,342.890 63.685 C 343.155 63.377,342.982 59.201,342.647 57.833 C 342.546 57.421,342.405 56.577,342.334 55.958 C 342.069 53.640,339.998 50.954,337.700 49.946 C 337.452 49.838,337.058 49.619,336.824 49.460 C 336.123 48.984,333.680 48.222,332.167 48.007 C 331.387 47.896,330.450 47.733,330.083 47.644 C 327.106 46.922,318.075 48.091,316.803 49.364 C 316.646 49.521,316.215 49.731,315.844 49.830 C 314.946 50.072,311.931 53.010,311.754 53.816 C 311.641 54.331,311.180 54.667,310.586 54.667 C 310.261 54.667,310.198 54.144,310.073 50.418 C 309.922 45.928,310.016 46.100,308.083 46.770 M186.000 47.671 C 185.496 47.738,184.671 47.847,184.167 47.912 C 182.955 48.070,180.254 48.977,179.837 49.366 C 179.655 49.535,179.287 49.718,179.019 49.771 C 178.751 49.825,178.273 50.104,177.957 50.393 C 177.641 50.681,177.130 51.104,176.821 51.333 C 175.811 52.083,174.491 53.497,173.879 54.484 C 173.083 55.769,172.833 56.342,172.833 56.879 C 172.833 57.187,172.762 57.846,172.675 58.344 C 172.587 58.842,172.484 60.038,172.445 61.000 C 172.406 61.962,172.247 63.313,172.092 64.000 C 171.767 65.437,171.817 76.935,172.156 79.000 C 172.254 79.596,172.405 81.133,172.492 82.417 C 172.710 85.625,172.890 86.751,173.374 87.917 C 173.602 88.467,173.838 89.125,173.899 89.379 C 173.959 89.634,174.155 89.988,174.334 90.167 C 174.513 90.346,174.765 90.738,174.895 91.038 C 175.251 91.863,177.185 93.867,178.247 94.512 C 178.764 94.826,179.502 95.283,179.885 95.527 C 180.319 95.802,180.953 96.015,181.559 96.090 C 182.110 96.157,182.871 96.399,183.309 96.646 C 184.703 97.433,192.999 97.346,195.122 96.522 C 195.559 96.353,196.242 96.164,196.639 96.103 C 197.312 95.999,199.333 94.782,199.333 94.480 C 199.333 94.414,199.595 94.273,199.914 94.168 C 200.528 93.965,202.651 91.820,203.116 90.931 C 203.255 90.665,203.544 90.258,203.757 90.028 C 203.970 89.799,204.192 89.423,204.249 89.193 C 204.307 88.964,204.497 88.594,204.673 88.371 C 204.848 88.148,205.036 87.693,205.090 87.358 C 205.144 87.024,205.255 86.412,205.337 86.000 C 205.752 83.892,205.839 83.198,206.011 80.599 C 206.260 76.828,206.190 76.397,205.295 76.156 C 204.286 75.885,192.642 76.008,192.297 76.294 C 192.090 76.466,192.023 77.223,191.928 80.461 C 191.824 84.009,191.770 84.545,191.407 85.667 C 191.184 86.354,190.964 87.104,190.919 87.333 C 190.659 88.642,189.502 88.420,188.750 86.916 L 188.250 85.917 188.250 71.750 C 188.250 58.216,188.264 57.560,188.561 57.070 C 189.134 56.123,189.416 56.076,190.190 56.798 L 190.874 57.436 190.955 61.593 C 191.023 65.122,191.076 65.781,191.300 65.958 C 191.786 66.342,205.539 66.251,205.891 65.862 C 206.355 65.349,206.014 60.433,205.288 57.167 C 204.830 55.106,203.271 52.521,202.150 51.962 C 201.832 51.803,201.224 51.353,200.798 50.962 C 199.463 49.734,196.587 48.444,194.333 48.062 C 193.554 47.930,192.597 47.749,192.206 47.661 C 191.403 47.479,187.392 47.486,186.000 47.671 M260.083 47.753 C 259.625 47.885,259.019 47.995,258.738 47.997 C 258.080 48.001,254.971 49.092,254.745 49.398 C 254.650 49.526,254.297 49.707,253.960 49.800 C 253.623 49.893,253.063 50.198,252.715 50.478 C 252.368 50.759,251.627 51.358,251.069 51.811 C 250.511 52.263,249.958 52.866,249.840 53.150 C 249.722 53.434,249.567 53.667,249.494 53.667 C 249.168 53.667,247.977 56.556,247.824 57.717 C 247.648 59.065,247.574 59.525,247.237 61.393 C 246.710 64.310,246.996 84.704,247.581 85.917 C 247.823 86.417,248.080 87.091,248.705 88.865 C 248.890 89.387,249.164 89.949,249.316 90.115 C 249.468 90.281,249.750 90.687,249.943 91.018 C 250.627 92.190,252.162 93.779,252.912 94.092 C 253.240 94.229,253.655 94.488,253.834 94.667 C 254.013 94.847,254.499 95.079,254.913 95.183 C 255.328 95.288,255.667 95.437,255.667 95.516 C 255.667 95.783,256.648 96.167,257.330 96.167 C 257.704 96.167,258.477 96.366,259.047 96.609 C 261.081 97.476,268.775 97.359,271.417 96.421 C 272.058 96.193,272.745 96.005,272.942 96.004 C 273.950 95.994,278.801 92.024,279.170 90.907 C 279.274 90.591,279.422 90.333,279.498 90.333 C 279.574 90.333,279.808 89.977,280.016 89.542 C 280.225 89.106,280.534 88.560,280.703 88.327 C 280.903 88.052,281.096 87.269,281.257 86.077 C 281.393 85.072,281.578 83.762,281.669 83.167 C 282.278 79.181,282.220 76.402,281.523 76.207 C 280.459 75.908,267.530 76.065,267.214 76.381 C 266.952 76.643,266.905 77.143,266.814 80.631 C 266.729 83.944,266.657 84.758,266.373 85.667 C 266.186 86.263,265.968 87.013,265.887 87.333 C 265.748 87.883,265.695 87.920,264.972 87.967 C 263.174 88.084,263.041 87.469,263.014 78.900 C 262.999 74.362,263.086 73.770,263.812 73.450 C 264.116 73.317,266.905 73.231,272.933 73.170 C 279.950 73.100,281.669 73.039,281.891 72.855 C 282.417 72.418,282.131 62.931,281.510 60.250 C 281.341 59.517,281.113 58.375,281.003 57.713 C 280.894 57.050,280.673 56.338,280.512 56.129 C 280.352 55.921,280.137 55.506,280.036 55.209 C 279.682 54.172,277.472 51.720,276.000 50.729 C 274.816 49.933,274.571 49.771,274.000 49.405 C 273.679 49.199,273.154 48.978,272.833 48.913 C 272.512 48.849,271.912 48.642,271.500 48.454 C 269.936 47.740,261.845 47.244,260.083 47.753 M359.917 47.680 C 357.401 48.019,356.657 48.177,355.333 48.655 C 354.554 48.936,353.839 49.271,353.743 49.400 C 353.648 49.529,353.250 49.721,352.859 49.826 C 352.469 49.932,352.007 50.160,351.833 50.333 C 351.660 50.507,351.297 50.763,351.028 50.902 C 350.236 51.312,348.207 53.631,347.892 54.486 C 347.737 54.906,347.515 55.363,347.398 55.502 C 347.282 55.641,347.097 56.128,346.987 56.585 C 346.878 57.043,346.631 57.867,346.440 58.417 C 345.771 60.342,345.845 84.442,346.524 85.711 C 346.613 85.878,346.754 86.429,346.836 86.935 C 346.919 87.440,347.102 88.074,347.243 88.344 C 347.384 88.613,347.623 89.077,347.773 89.375 C 348.661 91.137,350.893 93.660,351.962 94.111 C 352.262 94.237,352.652 94.485,352.828 94.662 C 353.005 94.838,353.457 95.065,353.833 95.167 C 354.210 95.268,354.662 95.495,354.838 95.671 C 355.014 95.847,355.329 96.025,355.537 96.065 C 355.746 96.105,356.329 96.214,356.833 96.306 C 357.337 96.399,358.200 96.638,358.750 96.838 C 359.935 97.269,367.903 97.270,368.917 96.839 C 369.192 96.722,370.079 96.454,370.888 96.244 C 371.697 96.034,372.484 95.752,372.638 95.617 C 372.791 95.482,373.235 95.212,373.625 95.016 C 374.015 94.820,374.333 94.592,374.333 94.510 C 374.333 94.427,374.580 94.278,374.880 94.179 C 375.462 93.987,378.000 91.340,378.000 90.926 C 378.000 90.801,378.262 90.384,378.583 90.000 C 378.904 89.616,379.167 89.145,379.167 88.953 C 379.167 88.762,379.329 88.432,379.527 88.221 C 379.966 87.754,380.481 84.581,380.493 82.278 C 380.497 81.367,380.629 80.300,380.838 79.480 C 381.211 78.019,381.154 76.668,380.703 76.295 C 380.251 75.920,366.600 75.995,366.221 76.374 C 365.976 76.619,365.910 77.146,365.804 79.707 C 365.552 85.758,364.894 88.163,363.490 88.166 C 363.162 88.167,362.405 87.385,362.199 86.833 C 361.818 85.815,361.982 73.669,362.381 73.301 C 362.401 73.283,366.478 73.227,371.441 73.176 C 382.164 73.066,381.167 73.306,381.167 70.831 C 381.167 68.913,380.893 65.123,380.662 63.833 C 380.572 63.329,380.388 61.704,380.253 60.222 C 379.870 56.005,377.666 52.118,374.917 50.812 C 374.216 50.479,373.475 50.045,372.495 49.395 C 371.640 48.829,369.793 48.237,368.167 48.008 C 367.387 47.899,366.479 47.739,366.147 47.654 C 365.433 47.471,361.342 47.488,359.917 47.680 M134.605 48.390 C 134.617 48.405,134.880 48.904,135.189 49.500 L 135.750 50.583 135.804 55.036 L 135.857 59.488 135.365 60.203 C 134.127 62.003,132.825 62.338,132.351 60.979 C 132.102 60.264,132.098 49.747,132.346 49.034 C 132.579 48.366,134.206 47.901,134.605 48.390 M153.376 48.853 C 152.161 49.204,152.256 47.284,152.201 72.757 C 152.155 94.092,152.170 95.629,152.434 95.848 C 152.819 96.168,167.121 96.295,167.869 95.985 C 168.793 95.602,168.747 96.796,168.795 72.295 C 168.838 50.296,168.828 49.495,168.530 49.197 C 168.050 48.717,154.883 48.418,153.376 48.853 M265.367 56.467 C 265.789 56.889,266.042 62.764,265.679 63.719 C 265.460 64.293,264.613 64.567,264.015 64.258 C 263.103 63.786,263.082 63.695,263.104 60.378 L 263.125 57.309 263.687 56.726 C 264.241 56.153,264.944 56.044,265.367 56.467 M327.283 56.270 C 328.020 56.467,328.345 62.915,327.652 63.575 C 327.149 64.054,326.378 63.706,326.094 62.871 C 325.951 62.453,325.706 61.969,325.550 61.796 C 325.322 61.544,325.251 61.061,325.195 59.395 L 325.126 57.308 325.679 56.737 C 326.224 56.175,326.562 56.076,327.283 56.270 M363.859 56.375 C 364.442 56.849,364.583 57.678,364.583 60.622 L 364.583 63.494 364.065 64.012 L 363.546 64.530 362.879 64.190 C 362.043 63.763,362.000 63.571,362.000 60.224 C 362.000 57.420,362.179 56.618,362.868 56.341 C 363.397 56.129,363.564 56.135,363.859 56.375 M327.207 80.008 C 329.202 80.562,329.811 86.525,328.019 87.965 L 327.414 88.451 326.803 88.065 C 326.271 87.728,326.169 87.554,326.006 86.714 C 325.903 86.184,325.712 85.450,325.583 85.083 C 325.387 84.528,325.272 82.825,325.322 81.221 C 325.335 80.815,326.091 79.833,326.390 79.834 C 326.496 79.835,326.864 79.913,327.207 80.008 M47.211 98.109 C 46.908 98.232,46.621 99.437,46.812 99.793 C 47.370 100.836,48.801 100.981,58.500 100.981 C 69.830 100.981,71.923 100.569,70.181 98.682 L 69.551 98.000 58.484 98.013 C 52.397 98.020,47.324 98.064,47.211 98.109 M49.083 103.823 C 46.470 103.957,46.027 104.345,46.983 105.667 C 47.360 106.188,49.411 106.279,61.568 106.312 L 69.552 106.333 70.091 105.922 C 70.772 105.402,71.064 104.651,70.750 104.222 C 70.416 103.764,55.554 103.490,49.083 103.823 M53.250 109.158 C 51.884 109.720,51.764 110.494,52.917 111.320 L 53.750 111.917 58.641 111.970 L 63.532 112.023 64.186 111.570 C 65.297 110.800,65.202 109.634,63.994 109.218 C 63.323 108.987,53.796 108.934,53.250 109.158 " stroke="none" fill="#f6eee6" fill-rule="evenodd"></path><path id="path1" d="M0.000 62.500 L 0.000 125.000 200.000 125.000 L 400.000 125.000 400.000 62.500 L 400.000 0.000 200.000 0.000 L 0.000 0.000 0.000 62.500 M52.371 16.167 C 52.717 16.864,52.881 17.564,53.057 19.094 C 53.184 20.200,53.374 21.264,53.478 21.458 C 53.835 22.126,53.709 22.614,53.075 23.005 C 52.065 23.629,51.418 22.725,51.045 20.167 C 50.918 19.296,50.746 18.133,50.663 17.583 C 50.319 15.311,51.473 14.355,52.371 16.167 M66.640 15.961 C 66.926 16.330,66.784 18.402,66.426 19.093 C 66.288 19.358,66.136 19.895,66.088 20.287 C 65.798 22.635,65.852 22.483,65.150 22.947 L 64.489 23.385 64.017 22.933 C 63.571 22.505,63.556 22.448,63.751 21.866 C 63.864 21.527,64.006 20.513,64.066 19.611 C 64.271 16.537,65.614 14.633,66.640 15.961 M39.059 20.936 C 39.591 21.378,39.729 21.610,41.300 24.720 C 42.176 26.453,42.182 26.474,41.934 27.068 C 41.640 27.772,41.681 27.762,40.927 27.318 C 40.175 26.874,39.683 26.158,38.083 23.189 C 37.900 22.848,37.619 22.387,37.458 22.165 C 36.938 21.441,37.124 20.815,37.917 20.621 C 38.489 20.480,38.522 20.489,39.059 20.936 M79.828 20.988 C 80.065 21.559,79.960 22.002,79.371 22.917 C 78.334 24.528,78.192 24.782,78.018 25.333 C 77.540 26.844,75.558 28.138,75.243 27.145 C 75.023 26.450,75.134 25.816,75.602 25.108 C 76.634 23.543,76.822 23.230,76.980 22.809 C 77.645 21.033,79.386 19.920,79.828 20.988 M61.871 27.758 C 62.579 27.886,63.779 28.041,64.538 28.101 C 65.465 28.174,66.162 28.334,66.667 28.588 C 67.079 28.796,67.717 29.040,68.083 29.130 C 69.695 29.527,72.325 30.785,73.147 31.554 C 73.387 31.779,73.771 32.019,74.000 32.088 C 75.804 32.631,77.488 34.735,77.496 36.454 C 77.501 37.715,77.730 37.918,79.293 38.049 C 80.532 38.152,82.315 39.538,83.136 41.037 C 83.912 42.455,84.261 43.066,84.635 43.667 C 84.835 43.987,84.999 44.370,84.999 44.517 C 85.000 44.664,85.185 45.132,85.411 45.557 C 86.230 47.096,86.836 48.781,86.982 49.921 C 87.063 50.560,87.270 51.421,87.440 51.833 C 87.948 53.062,87.902 60.497,87.378 61.944 C 87.174 62.508,86.959 63.408,86.900 63.944 C 86.842 64.479,86.652 65.166,86.478 65.472 C 86.304 65.777,86.086 66.365,85.994 66.778 C 85.901 67.191,85.640 67.803,85.413 68.137 C 85.186 68.471,84.997 68.858,84.993 68.997 C 84.990 69.136,84.765 69.662,84.493 70.167 C 84.222 70.671,84.000 71.167,84.000 71.269 C 84.000 71.371,83.775 71.737,83.500 72.083 C 83.225 72.429,83.000 72.808,83.000 72.924 C 83.000 73.040,82.756 73.435,82.458 73.802 C 82.160 74.169,81.654 74.848,81.333 75.310 C 81.012 75.773,80.700 76.155,80.639 76.159 C 80.578 76.163,80.306 76.523,80.034 76.958 C 79.762 77.394,78.962 78.350,78.256 79.083 C 73.756 83.758,73.305 84.275,73.089 85.000 C 73.021 85.229,72.785 85.732,72.564 86.117 C 72.189 86.771,71.845 88.071,71.508 90.116 C 71.429 90.592,71.317 91.058,71.260 91.151 C 71.202 91.244,71.086 92.106,71.002 93.066 C 70.882 94.426,70.751 94.996,70.409 95.650 L 69.970 96.490 70.902 97.588 C 72.173 99.086,72.154 100.231,70.845 101.083 C 69.898 101.701,69.944 102.633,70.944 103.108 C 71.921 103.571,72.187 104.891,71.545 106.085 C 71.084 106.940,70.824 107.023,68.052 107.201 C 64.947 107.399,65.039 107.347,65.598 108.569 C 66.593 110.742,65.679 112.646,63.505 112.929 C 61.792 113.152,53.292 112.907,52.740 112.619 C 50.879 111.648,50.611 109.523,52.130 107.791 C 52.543 107.319,52.279 107.255,49.528 107.156 C 46.737 107.056,46.316 106.944,45.941 106.203 C 45.314 104.965,45.565 103.747,46.649 102.766 C 47.188 102.278,47.102 101.618,46.435 101.108 C 45.948 100.737,45.843 100.525,45.678 99.578 L 45.486 98.478 46.326 97.559 C 47.247 96.552,47.269 96.382,46.643 95.132 C 46.286 94.419,46.204 89.178,46.513 86.833 C 47.013 83.035,46.942 82.839,45.155 83.071 C 43.632 83.269,43.566 83.224,39.728 79.381 C 36.397 76.046,34.561 73.919,33.899 72.628 C 33.745 72.328,33.480 71.904,33.310 71.686 C 33.139 71.467,33.000 71.154,33.000 70.990 C 33.000 70.826,32.805 70.461,32.567 70.178 C 32.329 69.895,32.031 69.270,31.905 68.790 C 31.779 68.310,31.524 67.620,31.338 67.256 C 31.152 66.893,31.000 66.439,31.000 66.247 C 31.000 66.056,30.819 65.528,30.597 65.074 C 29.267 62.352,29.252 51.961,30.575 49.350 C 30.809 48.889,31.000 48.236,31.000 47.901 C 31.000 47.537,31.194 46.946,31.480 46.437 C 31.744 45.967,32.009 45.310,32.068 44.975 C 32.127 44.641,32.286 44.275,32.421 44.163 C 32.555 44.052,32.776 43.588,32.911 43.133 C 33.052 42.658,33.336 42.164,33.578 41.974 C 33.810 41.792,34.000 41.545,34.000 41.425 C 34.000 41.305,34.124 41.105,34.276 40.979 C 34.428 40.853,34.682 40.462,34.840 40.109 C 35.265 39.160,38.439 35.664,39.943 34.487 C 40.295 34.211,40.808 33.800,41.083 33.573 C 41.358 33.347,41.850 32.942,42.176 32.675 C 43.099 31.918,48.629 29.196,49.629 29.007 C 50.113 28.915,50.676 28.751,50.879 28.641 C 51.327 28.400,55.428 27.671,57.167 27.523 C 58.757 27.388,60.241 27.462,61.871 27.758 M28.050 29.938 C 29.004 30.425,33.000 34.113,33.000 34.507 C 33.000 34.772,32.615 35.500,32.475 35.500 C 31.369 35.500,27.923 32.828,26.694 31.017 L 26.297 30.431 26.741 30.049 C 27.270 29.594,27.359 29.586,28.050 29.938 M90.812 30.104 C 91.093 30.720,89.946 32.233,88.675 32.924 C 88.441 33.050,87.849 33.560,87.359 34.056 C 86.343 35.083,85.500 35.453,84.792 35.183 C 84.050 34.900,84.190 34.351,85.292 33.224 C 88.436 30.005,90.290 28.957,90.812 30.104 M55.250 33.683 C 52.916 33.959,52.166 34.116,51.865 34.388 C 51.695 34.541,51.370 34.667,51.142 34.667 C 50.458 34.667,49.075 35.141,48.766 35.482 C 48.608 35.657,48.223 35.848,47.911 35.907 C 47.599 35.965,47.134 36.189,46.878 36.404 C 46.623 36.619,46.142 36.909,45.811 37.047 C 44.636 37.538,39.707 42.630,39.083 43.998 C 38.937 44.317,38.677 44.730,38.505 44.914 C 38.056 45.396,37.072 47.321,36.947 47.960 C 36.889 48.259,36.686 48.712,36.497 48.968 C 36.250 49.303,36.105 49.876,35.982 51.009 C 35.888 51.875,35.733 52.808,35.637 53.083 C 34.794 55.495,34.772 59.598,35.593 61.185 C 35.727 61.445,35.883 62.129,35.940 62.704 C 35.996 63.279,36.257 64.250,36.521 64.861 C 36.784 65.472,37.001 66.147,37.003 66.361 C 37.005 66.575,37.230 67.080,37.503 67.483 C 37.776 67.887,38.000 68.308,38.000 68.419 C 38.000 68.531,38.169 68.833,38.375 69.092 C 38.581 69.351,38.900 69.802,39.083 70.095 C 40.060 71.656,40.639 72.329,43.542 75.276 C 45.936 77.705,46.806 78.703,47.115 79.369 L 47.523 80.249 48.220 79.491 C 48.603 79.075,49.067 78.481,49.250 78.172 C 50.124 76.701,50.392 76.344,51.366 75.359 C 51.941 74.777,52.690 74.158,53.030 73.985 C 53.370 73.811,53.709 73.575,53.783 73.459 C 53.856 73.344,54.329 72.931,54.833 72.542 C 56.510 71.250,58.949 68.645,59.085 68.000 C 59.153 67.679,59.376 67.249,59.580 67.044 C 60.317 66.302,60.253 61.157,59.487 59.628 C 58.551 57.760,57.505 56.209,56.335 54.956 C 54.906 53.425,54.763 53.077,54.927 51.542 C 55.328 47.804,59.700 49.165,62.773 53.983 C 63.531 55.172,63.601 55.195,63.948 54.375 C 64.648 52.719,63.979 51.525,60.328 47.917 L 57.968 45.583 58.052 44.614 C 58.198 42.946,59.441 41.681,60.945 41.670 C 61.507 41.666,62.893 42.192,63.068 42.476 C 63.126 42.569,63.715 43.004,64.378 43.443 C 65.671 44.299,66.541 45.103,67.080 45.939 C 68.293 47.821,68.305 47.833,68.969 47.833 C 70.096 47.833,70.260 46.929,69.316 45.917 C 64.801 41.074,64.132 39.601,65.680 37.921 C 67.365 36.094,69.088 36.532,71.900 39.500 C 72.551 40.188,73.463 41.132,73.927 41.598 C 74.391 42.064,74.865 42.674,74.981 42.954 C 75.096 43.233,75.373 43.619,75.595 43.813 C 75.818 44.006,76.000 44.271,76.000 44.401 C 76.000 44.532,76.225 44.851,76.500 45.110 C 76.775 45.370,77.000 45.717,77.000 45.883 C 77.000 46.540,77.519 47.261,77.758 46.934 C 78.050 46.534,77.884 45.492,77.470 45.130 C 77.290 44.973,77.066 44.560,76.972 44.214 C 76.878 43.867,76.647 43.417,76.459 43.213 C 76.015 42.732,75.608 40.676,75.837 40.073 C 76.164 39.213,75.836 38.667,74.992 38.667 C 74.389 38.667,71.041 37.045,70.325 36.406 C 70.183 36.279,69.755 36.065,69.373 35.931 C 68.991 35.796,68.468 35.529,68.209 35.338 C 67.951 35.147,67.441 34.945,67.078 34.890 C 66.714 34.834,66.304 34.691,66.166 34.572 C 65.304 33.829,58.620 33.285,55.250 33.683 M134.468 36.335 C 137.721 36.441,139.650 36.569,139.885 36.695 C 140.086 36.803,140.662 36.983,141.167 37.095 C 142.363 37.361,144.455 38.117,144.993 38.477 C 145.226 38.633,145.679 38.880,146.000 39.026 C 147.381 39.652,149.787 43.138,149.944 44.739 C 149.999 45.295,150.299 46.425,150.611 47.250 C 151.510 49.629,151.425 49.512,151.733 48.798 C 152.149 47.831,152.345 47.811,161.047 47.868 C 169.103 47.921,169.202 47.930,169.581 48.662 C 170.115 49.695,170.027 93.587,169.486 95.735 C 169.157 97.043,169.462 97.000,160.462 97.000 C 151.688 97.000,152.027 97.044,151.644 95.870 C 151.493 95.411,151.416 91.349,151.345 80.226 C 151.252 65.595,151.241 65.192,150.923 64.840 C 150.495 64.368,150.262 64.651,149.988 65.980 C 149.564 68.028,148.214 69.949,146.109 71.500 C 145.674 71.821,145.112 72.245,144.862 72.443 C 144.611 72.640,144.033 72.854,143.578 72.917 C 143.123 72.980,142.376 73.222,141.920 73.454 C 141.135 73.854,140.910 73.881,137.753 73.960 C 135.370 74.020,134.286 74.110,133.958 74.276 L 133.500 74.509 133.498 85.046 L 133.495 95.583 132.931 96.250 L 132.367 96.917 123.961 96.965 C 115.832 97.013,115.541 97.004,115.152 96.689 L 114.750 96.363 114.644 90.973 C 114.485 82.921,114.500 46.857,114.665 42.167 C 114.847 36.972,114.965 36.455,116.000 36.317 C 117.254 36.150,129.098 36.161,134.468 36.335 M168.898 36.515 C 169.771 37.202,169.833 37.524,169.833 41.333 C 169.833 46.538,169.970 46.395,164.917 46.466 C 158.998 46.549,152.670 46.288,152.137 45.938 C 150.658 44.965,151.006 36.958,152.555 36.334 C 153.445 35.975,168.422 36.141,168.898 36.515 M223.613 36.598 C 224.370 37.159,224.544 37.751,224.859 40.832 C 225.022 42.435,225.268 44.310,225.405 44.999 C 225.543 45.687,225.743 47.919,225.851 49.959 C 226.057 53.858,226.222 54.608,226.730 53.954 C 226.897 53.739,226.992 52.760,227.079 50.371 C 227.200 47.005,227.474 44.509,227.786 43.917 C 227.882 43.733,228.015 42.177,228.082 40.458 L 228.203 37.333 228.886 36.791 L 229.570 36.250 238.141 36.250 L 246.712 36.250 247.220 36.877 L 247.728 37.504 247.549 39.377 C 247.381 41.145,246.720 45.888,246.336 48.083 C 246.240 48.633,246.092 49.915,246.006 50.931 C 245.921 51.947,245.778 52.960,245.689 53.181 C 245.508 53.631,245.066 57.529,244.906 60.083 C 244.847 61.027,244.659 62.180,244.471 62.742 C 244.245 63.421,244.093 64.527,243.990 66.242 C 243.817 69.154,243.707 70.000,243.385 70.917 C 243.257 71.283,243.079 72.783,242.991 74.250 C 242.808 77.305,242.737 77.828,242.386 78.750 C 242.228 79.165,242.048 80.677,241.911 82.750 C 241.767 84.915,241.599 86.296,241.433 86.690 C 241.293 87.023,241.097 87.998,240.999 88.856 C 240.901 89.715,240.748 90.979,240.659 91.667 C 240.570 92.354,240.498 93.367,240.499 93.917 C 240.500 95.290,240.133 95.957,239.083 96.492 L 238.250 96.917 226.833 96.917 C 217.472 96.917,215.318 96.875,214.869 96.685 C 214.006 96.322,213.440 95.197,213.306 93.583 C 213.094 91.027,212.831 89.078,212.586 88.250 C 212.450 87.792,212.222 86.190,212.079 84.690 C 211.928 83.102,211.687 81.571,211.500 81.023 C 211.284 80.388,211.122 79.192,210.999 77.333 C 210.855 75.156,210.747 74.445,210.480 73.917 C 210.221 73.405,210.109 72.725,210.001 71.000 C 209.853 68.644,209.632 67.226,209.323 66.647 C 209.222 66.458,209.073 65.354,208.993 64.194 C 208.800 61.409,208.679 60.535,208.388 59.833 C 208.256 59.512,208.036 58.012,207.899 56.500 C 207.763 54.987,207.536 53.380,207.396 52.928 C 207.255 52.476,207.073 51.464,206.991 50.678 C 206.909 49.893,206.764 48.762,206.669 48.167 C 206.573 47.571,206.386 46.221,206.253 45.167 C 205.923 42.547,205.719 41.409,205.510 41.019 C 204.922 39.921,205.423 37.004,206.293 36.453 C 207.065 35.965,222.937 36.098,223.613 36.598 M22.272 42.594 C 22.743 42.805,23.418 43.030,23.772 43.095 C 24.127 43.160,24.604 43.342,24.833 43.500 C 25.063 43.658,25.525 43.876,25.862 43.985 C 26.827 44.298,27.339 45.345,26.761 45.824 C 26.378 46.142,24.655 45.956,23.950 45.521 C 23.643 45.331,22.985 45.089,22.488 44.983 C 21.990 44.877,21.379 44.618,21.129 44.409 C 20.879 44.200,20.453 43.980,20.182 43.920 C 19.525 43.776,19.300 43.468,19.364 42.803 C 19.449 41.916,20.577 41.835,22.272 42.594 M97.642 42.292 C 98.269 42.821,97.922 43.673,96.935 44.026 C 96.493 44.184,96.002 44.430,95.844 44.574 C 95.686 44.717,95.112 44.916,94.570 45.015 C 94.027 45.114,93.323 45.355,93.006 45.550 C 92.358 45.948,90.811 46.044,90.474 45.707 C 89.883 45.116,91.812 43.493,93.697 42.996 C 94.093 42.892,94.598 42.690,94.819 42.548 C 95.738 41.958,97.101 41.835,97.642 42.292 M310.049 45.836 C 310.645 46.305,310.790 46.924,310.896 49.459 C 311.015 52.271,311.275 52.875,311.907 51.806 C 312.402 50.967,314.870 49.000,315.426 49.000 C 315.544 49.000,315.858 48.817,316.124 48.594 C 316.402 48.360,317.094 48.075,317.759 47.921 C 318.394 47.773,319.088 47.538,319.302 47.398 C 320.852 46.382,331.934 46.505,334.417 47.565 C 334.967 47.800,335.517 47.994,335.639 47.996 C 335.929 48.001,338.329 49.191,339.034 49.680 C 340.631 50.788,342.780 53.176,342.942 54.026 C 343.001 54.332,343.239 54.958,343.472 55.417 C 344.035 56.527,344.261 63.160,343.761 63.923 C 343.257 64.692,342.914 64.739,337.083 64.830 C 331.151 64.923,330.494 65.016,331.087 65.670 C 331.241 65.841,331.604 66.033,331.892 66.095 C 332.181 66.158,332.621 66.381,332.871 66.591 C 333.121 66.800,333.570 67.026,333.869 67.091 C 334.169 67.157,334.639 67.382,334.915 67.592 C 335.191 67.802,335.642 68.029,335.917 68.096 C 336.192 68.163,336.616 68.375,336.859 68.567 C 337.102 68.759,337.690 69.142,338.165 69.417 C 338.640 69.692,339.330 70.160,339.697 70.458 C 340.064 70.756,340.421 71.000,340.489 71.000 C 340.711 71.000,342.872 73.264,343.148 73.786 C 343.407 74.275,344.453 75.274,344.572 75.146 C 344.671 75.039,345.001 66.552,345.011 63.833 C 345.026 59.859,345.657 56.367,346.592 55.083 C 346.792 54.808,347.007 54.369,347.069 54.108 C 347.286 53.193,348.946 51.342,351.083 49.634 C 352.457 48.535,356.440 47.116,358.961 46.827 C 361.967 46.482,368.873 46.826,369.919 47.372 C 370.195 47.516,370.870 47.765,371.419 47.924 C 371.968 48.084,372.642 48.385,372.917 48.594 C 373.192 48.803,373.642 49.029,373.917 49.096 C 374.192 49.163,374.629 49.393,374.888 49.609 C 375.147 49.824,375.414 50.000,375.482 50.000 C 376.021 50.000,379.725 54.249,379.934 55.108 C 379.998 55.369,380.264 55.988,380.525 56.482 C 380.899 57.190,381.000 57.599,381.000 58.411 C 381.000 59.085,381.148 59.869,381.428 60.679 C 381.937 62.148,382.252 71.320,381.845 72.804 C 381.510 74.024,381.704 74.000,372.078 74.000 C 366.583 74.000,363.532 74.060,363.322 74.173 C 362.938 74.378,362.816 85.088,363.186 86.149 C 363.778 87.848,364.436 85.390,364.725 80.403 C 364.949 76.555,365.079 75.786,365.567 75.461 C 365.667 75.394,368.983 75.337,372.933 75.336 C 380.430 75.333,380.866 75.370,381.644 76.065 L 382.038 76.417 381.921 80.312 C 381.816 83.784,381.762 84.318,381.423 85.229 C 381.214 85.790,380.988 86.625,380.922 87.083 C 380.560 89.584,375.938 95.402,373.917 95.902 C 373.642 95.970,373.192 96.195,372.917 96.402 C 372.642 96.609,371.892 96.908,371.250 97.066 C 370.608 97.225,369.896 97.481,369.667 97.636 C 369.297 97.885,368.641 97.916,363.833 97.914 L 358.417 97.912 357.167 97.469 C 356.479 97.225,355.617 96.972,355.250 96.906 C 354.883 96.841,354.380 96.645,354.132 96.471 C 353.884 96.297,353.434 96.068,353.132 95.963 C 351.509 95.398,348.058 92.065,347.191 90.225 C 346.895 89.597,346.477 88.746,346.263 88.333 C 346.036 87.897,345.824 87.113,345.756 86.460 C 345.617 85.104,345.419 84.913,345.146 85.870 C 345.035 86.262,344.805 86.740,344.635 86.931 C 344.466 87.122,344.225 87.797,344.100 88.431 C 343.495 91.505,340.529 95.079,337.667 96.182 C 337.254 96.341,336.692 96.590,336.417 96.735 C 336.142 96.879,335.796 96.998,335.647 96.999 C 335.499 97.000,335.199 97.137,334.981 97.305 C 333.916 98.122,323.183 98.315,321.485 97.547 C 321.064 97.357,320.277 97.112,319.735 97.003 C 316.134 96.278,311.902 92.491,310.981 89.167 C 310.816 88.571,310.550 87.671,310.391 87.167 C 310.009 85.956,309.945 79.885,310.310 79.445 C 310.737 78.930,311.718 78.835,316.614 78.834 C 319.348 78.834,321.664 78.763,321.903 78.672 L 322.328 78.510 322.002 77.957 C 321.794 77.604,321.446 77.323,321.046 77.182 C 320.700 77.061,320.229 76.796,320.000 76.595 C 319.771 76.393,319.171 76.021,318.667 75.768 C 318.162 75.514,317.450 75.084,317.083 74.811 C 316.717 74.539,315.929 74.001,315.333 73.616 C 313.127 72.191,310.167 68.268,310.167 66.768 C 310.167 65.907,306.882 65.698,305.810 66.491 C 305.555 66.679,305.282 66.833,305.204 66.833 C 305.125 66.833,304.684 66.945,304.223 67.082 C 302.573 67.572,302.511 68.172,302.502 83.750 L 302.495 95.583 301.931 96.250 L 301.367 96.917 293.500 96.966 C 284.850 97.020,285.126 97.050,284.586 96.005 C 284.168 95.197,283.941 81.695,284.076 65.750 C 284.211 49.907,284.253 49.004,284.892 48.366 L 285.341 47.917 293.130 47.869 L 300.919 47.821 301.735 48.234 L 302.551 48.647 303.170 48.332 C 303.510 48.158,304.005 47.835,304.269 47.614 C 305.011 46.993,306.456 46.296,307.833 45.894 C 309.418 45.433,309.532 45.430,310.049 45.836 M192.949 46.839 C 193.333 46.927,193.956 47.000,194.333 47.000 C 194.716 47.000,195.516 47.212,196.148 47.481 C 196.769 47.745,197.533 48.017,197.845 48.086 C 198.158 48.155,198.639 48.378,198.915 48.583 C 199.191 48.788,199.642 49.009,199.917 49.073 C 200.192 49.138,200.604 49.363,200.833 49.574 C 201.063 49.786,201.606 50.226,202.041 50.552 C 203.064 51.320,204.619 53.146,205.331 54.417 C 205.862 55.363,205.977 55.756,206.303 57.750 C 206.378 58.208,206.556 58.808,206.698 59.083 C 207.095 59.851,207.285 65.394,206.942 66.215 C 206.599 67.036,206.726 67.025,198.131 66.967 C 191.242 66.920,190.656 66.894,190.381 66.619 C 190.117 66.355,190.074 65.868,190.000 62.252 C 189.921 58.387,189.798 57.480,189.405 57.873 C 188.742 58.536,188.829 85.562,189.496 86.229 C 190.068 86.801,190.499 84.224,190.500 80.233 C 190.500 75.268,190.256 75.440,197.417 75.363 C 206.279 75.267,206.833 75.367,207.096 77.104 C 207.302 78.462,206.924 84.637,206.588 85.407 C 206.431 85.769,206.194 86.584,206.061 87.218 C 205.923 87.884,205.647 88.600,205.410 88.910 C 205.185 89.206,205.000 89.515,205.000 89.596 C 205.000 90.274,201.672 94.203,200.333 95.106 C 200.012 95.322,199.450 95.701,199.083 95.948 C 198.717 96.195,197.479 96.730,196.333 97.138 L 194.250 97.880 189.659 97.951 C 183.545 98.047,181.905 97.743,178.883 95.957 C 178.144 95.520,177.324 95.088,177.060 94.996 C 176.540 94.815,175.383 93.569,174.941 92.714 C 174.790 92.422,174.555 92.121,174.419 92.045 C 174.050 91.838,173.239 90.489,173.117 89.877 C 173.058 89.582,172.812 89.042,172.571 88.677 C 172.248 88.189,172.092 87.669,171.985 86.715 C 171.904 86.001,171.721 85.004,171.578 84.500 C 171.435 83.996,171.240 83.264,171.145 82.873 C 171.031 82.406,170.994 78.250,171.035 70.707 L 171.098 59.250 171.547 58.333 C 171.849 57.718,171.997 57.147,171.998 56.597 C 172.001 55.068,173.818 52.371,175.942 50.738 C 177.392 49.624,180.588 47.844,181.151 47.836 C 181.279 47.835,181.767 47.653,182.234 47.434 C 183.825 46.685,190.645 46.306,192.949 46.839 M269.468 46.979 C 270.232 47.085,271.203 47.346,271.635 47.561 C 272.065 47.776,272.667 47.999,272.972 48.058 C 273.278 48.116,273.728 48.303,273.972 48.473 C 274.217 48.643,274.663 48.866,274.965 48.968 C 276.306 49.423,281.000 54.044,281.000 54.910 C 281.000 55.117,281.225 55.571,281.500 55.917 C 281.923 56.449,282.000 56.691,282.000 57.494 C 282.000 58.097,282.161 58.892,282.442 59.679 C 282.883 60.916,283.276 71.543,282.932 72.916 C 282.680 73.918,282.760 73.909,273.241 74.000 C 266.018 74.069,264.502 74.124,264.262 74.323 C 263.716 74.777,264.010 86.797,264.563 86.620 C 265.277 86.391,265.881 83.480,265.960 79.887 C 266.067 74.982,265.460 75.329,273.900 75.344 C 281.162 75.356,282.244 75.438,282.709 76.008 C 283.241 76.662,283.073 84.385,282.503 85.498 C 282.289 85.916,282.064 86.750,281.994 87.387 C 281.895 88.286,281.777 88.624,281.434 88.981 C 281.195 89.231,281.000 89.504,281.000 89.589 C 281.000 90.743,276.425 95.398,274.638 96.062 C 274.210 96.221,273.769 96.459,273.659 96.592 C 273.549 96.725,273.337 96.834,273.188 96.835 C 273.039 96.836,272.542 97.010,272.083 97.222 C 270.086 98.146,260.312 98.375,258.469 97.541 C 258.039 97.347,257.214 97.097,256.636 96.985 C 256.057 96.874,255.380 96.642,255.132 96.469 C 254.884 96.296,254.434 96.070,254.132 95.967 C 252.230 95.319,248.304 91.120,247.812 89.207 C 247.724 88.864,247.507 88.314,247.330 87.984 C 247.153 87.655,246.925 86.830,246.823 86.151 C 246.721 85.472,246.534 84.467,246.408 83.917 C 245.649 80.618,245.669 62.196,246.434 59.589 C 246.568 59.134,246.783 58.159,246.913 57.422 C 247.421 54.532,249.775 51.074,252.026 49.911 C 252.453 49.691,252.828 49.441,252.859 49.356 C 252.985 49.019,254.734 48.158,255.792 47.913 C 256.408 47.770,257.099 47.531,257.327 47.381 C 258.328 46.726,265.836 46.477,269.468 46.979 M78.217 47.284 C 78.067 47.337,78.063 47.456,78.200 47.756 C 78.403 48.201,78.667 48.151,78.667 47.667 C 78.667 47.312,78.510 47.178,78.217 47.284 M134.209 51.201 C 133.245 52.373,133.292 57.333,134.267 57.333 C 134.645 57.333,134.751 56.534,134.726 53.860 C 134.703 51.374,134.582 50.748,134.209 51.201 M73.085 55.160 C 72.977 55.501,73.242 56.167,73.485 56.167 C 73.841 56.167,74.049 55.656,73.861 55.245 C 73.636 54.751,73.229 54.707,73.085 55.160 M24.072 56.235 C 24.664 56.482,25.042 57.358,24.703 57.697 C 24.143 58.257,17.798 58.321,17.192 57.773 C 16.888 57.498,16.834 56.673,17.099 56.356 C 17.424 55.966,23.189 55.866,24.072 56.235 M99.797 56.292 C 100.549 56.948,100.349 57.864,99.402 58.102 C 98.652 58.290,93.284 58.074,92.792 57.835 C 92.011 57.457,92.197 56.443,93.098 56.174 C 94.099 55.874,99.426 55.968,99.797 56.292 M326.236 58.266 C 326.118 58.897,326.240 60.629,326.415 60.804 C 326.786 61.175,327.143 58.915,326.833 58.165 C 326.559 57.504,326.373 57.536,326.236 58.266 M363.181 58.272 C 362.884 59.341,362.945 63.247,363.263 63.511 C 363.744 63.910,363.846 63.357,363.797 60.633 C 363.747 57.842,363.530 57.013,363.181 58.272 M264.160 58.178 C 263.899 58.666,264.012 63.246,264.292 63.525 C 264.751 63.984,264.915 63.384,264.972 61.034 C 265.039 58.254,264.720 57.133,264.160 58.178 M93.150 68.611 C 93.553 68.825,94.042 69.000,94.237 69.000 C 94.432 69.000,95.040 69.223,95.588 69.495 C 96.135 69.767,96.706 69.992,96.857 69.995 C 97.610 70.009,98.285 71.389,97.753 71.831 C 97.413 72.113,95.443 71.944,94.895 71.584 C 94.679 71.443,94.033 71.208,93.459 71.063 C 91.733 70.626,90.456 69.756,90.587 69.107 C 90.818 67.967,91.635 67.809,93.150 68.611 M26.634 68.938 C 26.688 69.685,25.679 70.445,23.917 70.985 C 23.550 71.097,22.976 71.335,22.640 71.513 C 21.395 72.175,19.468 72.212,19.225 71.579 C 18.974 70.925,21.800 69.003,23.019 68.998 C 23.238 68.998,23.792 68.811,24.250 68.583 C 24.835 68.292,25.307 68.181,25.833 68.209 L 26.583 68.250 26.634 68.938 M32.919 79.340 C 33.066 79.805,32.607 80.547,31.845 81.075 C 31.472 81.334,31.167 81.597,31.167 81.660 C 31.167 81.723,30.773 82.084,30.292 82.463 C 29.810 82.842,29.229 83.309,29.000 83.500 C 27.529 84.729,26.567 84.888,26.315 83.945 C 25.907 82.421,32.449 77.860,32.919 79.340 M86.523 79.445 C 89.173 81.259,91.063 83.270,90.807 84.004 C 90.463 84.992,89.082 84.514,87.319 82.797 C 86.915 82.405,86.252 81.794,85.844 81.440 C 83.973 79.814,83.882 79.080,85.523 78.848 C 85.581 78.840,86.031 79.109,86.523 79.445 M326.987 81.433 C 326.628 81.865,326.692 86.009,327.066 86.581 C 327.752 87.627,328.206 86.447,328.076 83.957 C 327.944 81.445,327.613 80.678,326.987 81.433 M41.807 86.925 C 42.099 87.565,42.043 88.567,41.690 89.019 C 41.519 89.238,41.224 89.722,41.035 90.094 C 40.846 90.467,40.577 90.867,40.437 90.983 C 40.298 91.099,40.093 91.469,39.983 91.805 C 39.383 93.630,37.167 94.643,37.167 93.093 C 37.167 92.679,38.253 90.441,38.590 90.162 C 38.722 90.051,38.913 89.651,39.013 89.272 C 39.114 88.893,39.367 88.396,39.577 88.167 C 39.787 87.938,40.047 87.580,40.153 87.373 C 40.312 87.064,41.091 86.572,41.515 86.514 C 41.569 86.506,41.700 86.691,41.807 86.925 M77.241 87.559 C 77.567 88.050,77.919 88.707,78.023 89.018 C 78.127 89.329,78.382 89.771,78.590 90.000 C 80.056 91.616,80.348 93.699,79.122 93.802 C 78.579 93.847,78.469 93.789,78.182 93.302 C 78.003 92.998,77.699 92.525,77.507 92.250 C 76.658 91.035,76.276 90.379,76.058 89.762 C 75.930 89.398,75.715 88.979,75.581 88.831 C 74.726 87.886,75.006 86.667,76.078 86.667 C 76.583 86.667,76.717 86.769,77.241 87.559 " stroke="none" fill="#040404" fill-rule="evenodd"></path><path id="path2" d="M66.833 37.657 C 64.964 38.645,65.179 40.580,67.418 42.917 C 68.033 43.558,68.731 44.346,68.970 44.667 C 69.209 44.987,69.719 45.596,70.104 46.019 C 70.690 46.662,70.823 46.939,70.920 47.722 L 71.037 48.656 71.492 48.421 C 72.186 48.062,73.511 47.949,74.000 48.207 C 74.646 48.548,74.427 49.568,73.257 51.667 C 72.788 52.509,72.764 52.967,73.188 53.028 C 73.570 53.083,73.643 53.192,74.317 54.717 C 74.878 55.986,75.024 59.833,74.511 59.833 C 74.339 59.833,73.248 57.656,73.050 56.917 C 72.910 56.393,72.144 55.000,72.000 55.007 C 71.630 55.024,71.304 55.617,71.082 56.675 C 70.940 57.349,70.725 58.017,70.604 58.159 C 70.265 58.557,70.172 58.926,70.000 60.565 C 69.913 61.400,69.689 62.513,69.504 63.038 C 69.039 64.353,69.018 67.315,69.470 67.974 C 69.636 68.218,69.863 68.730,69.973 69.113 C 70.324 70.335,72.922 70.555,74.278 69.478 C 74.609 69.215,74.933 69.000,75.000 69.000 C 75.108 69.000,76.025 68.230,76.667 67.599 C 77.492 66.788,78.552 65.319,78.991 64.375 C 79.173 63.985,79.396 63.667,79.488 63.667 C 79.579 63.667,79.733 63.348,79.830 62.958 C 79.927 62.569,80.199 61.764,80.434 61.170 C 80.669 60.577,80.925 59.602,81.003 59.004 C 81.081 58.406,81.195 57.716,81.256 57.471 C 81.351 57.092,81.292 56.987,80.865 56.766 C 80.461 56.557,80.327 56.343,80.184 55.673 C 80.085 55.215,79.859 54.520,79.681 54.129 C 79.503 53.737,79.239 52.829,79.096 52.110 C 78.952 51.391,78.678 50.583,78.486 50.313 C 78.294 50.044,78.060 49.545,77.966 49.204 C 77.872 48.862,77.666 48.396,77.508 48.167 C 77.350 47.938,76.896 47.150,76.498 46.417 C 76.100 45.683,75.462 44.671,75.080 44.167 C 74.697 43.663,74.288 43.063,74.170 42.833 C 73.982 42.467,73.092 41.463,71.020 39.282 C 69.440 37.618,67.978 37.051,66.833 37.657 M59.492 42.792 C 58.901 43.349,58.819 43.526,58.728 44.420 L 58.627 45.424 60.029 46.920 C 60.801 47.743,61.899 48.862,62.471 49.405 C 63.043 49.949,63.673 50.661,63.872 50.989 C 65.080 52.978,65.689 53.478,65.966 52.708 C 66.117 52.288,67.767 50.485,68.892 49.512 L 69.360 49.106 68.964 48.899 C 68.610 48.714,67.445 47.449,65.609 45.255 C 65.256 44.834,64.581 44.242,64.109 43.939 C 63.636 43.636,63.143 43.258,63.011 43.099 C 62.128 42.027,60.456 41.881,59.492 42.792 M56.237 50.148 C 55.620 50.524,55.160 51.419,55.239 52.093 C 55.270 52.363,55.304 52.723,55.314 52.894 C 55.325 53.065,55.884 53.778,56.557 54.477 C 60.245 58.312,61.814 63.461,60.290 66.728 C 60.039 67.267,59.833 67.890,59.833 68.115 C 59.833 68.339,59.646 68.768,59.417 69.069 C 58.782 69.900,58.962 70.419,59.625 69.670 C 60.647 68.515,61.570 67.282,61.810 66.750 C 62.417 65.403,62.869 63.947,63.000 62.917 C 63.084 62.251,63.260 61.416,63.389 61.062 C 63.519 60.707,63.752 59.711,63.906 58.848 C 64.061 57.985,64.332 56.996,64.509 56.649 L 64.830 56.019 64.124 55.968 C 63.435 55.918,63.391 55.878,62.445 54.448 C 60.129 50.945,57.694 49.259,56.237 50.148 " stroke="none" fill="#dc6424" fill-rule="evenodd"></path><path id="path3" d="M57.167 27.523 C 55.428 27.671,51.327 28.400,50.879 28.641 C 50.676 28.751,50.113 28.915,49.629 29.007 C 48.629 29.196,43.099 31.918,42.176 32.675 C 41.850 32.942,41.358 33.347,41.083 33.573 C 40.808 33.800,40.295 34.211,39.943 34.487 C 38.439 35.664,35.265 39.160,34.840 40.109 C 34.682 40.462,34.428 40.853,34.276 40.979 C 34.124 41.105,34.000 41.305,34.000 41.425 C 34.000 41.545,33.810 41.792,33.578 41.974 C 33.336 42.164,33.052 42.658,32.911 43.133 C 32.776 43.588,32.555 44.052,32.421 44.163 C 32.286 44.275,32.127 44.641,32.068 44.975 C 32.009 45.310,31.744 45.967,31.480 46.437 C 31.194 46.946,31.000 47.537,31.000 47.901 C 31.000 48.236,30.809 48.889,30.575 49.350 C 29.252 51.961,29.267 62.352,30.597 65.074 C 30.819 65.528,31.000 66.056,31.000 66.247 C 31.000 66.439,31.152 66.893,31.338 67.256 C 31.524 67.620,31.779 68.310,31.905 68.790 C 32.031 69.270,32.329 69.895,32.567 70.178 C 32.805 70.461,33.000 70.826,33.000 70.990 C 33.000 71.154,33.139 71.467,33.310 71.686 C 33.480 71.904,33.745 72.328,33.899 72.628 C 34.561 73.919,36.397 76.046,39.728 79.381 C 43.566 83.224,43.632 83.269,45.155 83.071 C 46.942 82.839,47.013 83.035,46.513 86.833 C 46.204 89.178,46.286 94.419,46.643 95.132 C 47.269 96.382,47.247 96.552,46.326 97.559 L 45.486 98.478 45.678 99.578 C 45.843 100.525,45.948 100.737,46.435 101.108 C 47.102 101.618,47.188 102.278,46.649 102.766 C 45.565 103.747,45.314 104.965,45.941 106.203 C 46.316 106.944,46.737 107.056,49.528 107.156 C 52.279 107.255,52.543 107.319,52.130 107.791 C 50.611 109.523,50.879 111.648,52.740 112.619 C 53.292 112.907,61.792 113.152,63.505 112.929 C 65.679 112.646,66.593 110.742,65.598 108.569 C 65.039 107.347,64.947 107.399,68.052 107.201 C 70.824 107.023,71.084 106.940,71.545 106.085 C 72.187 104.891,71.921 103.571,70.944 103.108 C 69.944 102.633,69.898 101.701,70.845 101.083 C 72.154 100.231,72.173 99.086,70.902 97.588 L 69.970 96.490 70.409 95.650 C 70.751 94.996,70.882 94.426,71.002 93.066 C 71.086 92.106,71.202 91.244,71.260 91.151 C 71.317 91.058,71.429 90.592,71.508 90.116 C 71.845 88.071,72.189 86.771,72.564 86.117 C 72.785 85.732,73.021 85.229,73.089 85.000 C 73.305 84.275,73.756 83.758,78.256 79.083 C 78.962 78.350,79.762 77.394,80.034 76.958 C 80.306 76.523,80.578 76.163,80.639 76.159 C 80.700 76.155,81.012 75.773,81.333 75.310 C 81.654 74.848,82.160 74.169,82.458 73.802 C 82.756 73.435,83.000 73.040,83.000 72.924 C 83.000 72.808,83.225 72.429,83.500 72.083 C 83.775 71.737,84.000 71.371,84.000 71.269 C 84.000 71.167,84.222 70.671,84.493 70.167 C 84.765 69.662,84.990 69.136,84.993 68.997 C 84.997 68.858,85.186 68.471,85.413 68.137 C 85.640 67.803,85.901 67.191,85.994 66.778 C 86.086 66.365,86.304 65.777,86.478 65.472 C 86.652 65.166,86.842 64.479,86.900 63.944 C 86.959 63.408,87.174 62.508,87.378 61.944 C 87.902 60.497,87.948 53.062,87.440 51.833 C 87.270 51.421,87.063 50.560,86.982 49.921 C 86.836 48.781,86.230 47.096,85.411 45.557 C 85.185 45.132,85.000 44.664,84.999 44.517 C 84.999 44.370,84.835 43.987,84.635 43.667 C 84.261 43.066,83.912 42.455,83.136 41.037 C 82.315 39.538,80.532 38.152,79.293 38.049 C 77.730 37.918,77.501 37.715,77.496 36.454 C 77.488 34.735,75.804 32.631,74.000 32.088 C 73.771 32.019,73.387 31.779,73.147 31.554 C 72.325 30.785,69.695 29.527,68.083 29.130 C 67.717 29.040,67.079 28.796,66.667 28.588 C 66.162 28.334,65.465 28.174,64.538 28.101 C 63.779 28.041,62.579 27.886,61.871 27.758 C 60.241 27.462,58.757 27.388,57.167 27.523 M65.250 29.444 C 65.617 29.643,66.309 29.856,66.789 29.918 C 67.268 29.980,67.846 30.177,68.073 30.355 C 68.300 30.534,68.883 30.820,69.368 30.990 C 69.853 31.161,70.512 31.424,70.833 31.574 C 71.396 31.837,71.627 31.958,73.389 32.916 C 75.519 34.073,76.782 36.081,75.875 36.868 C 75.164 37.485,73.552 37.341,72.739 36.588 C 72.501 36.368,72.087 36.139,71.819 36.080 C 71.550 36.021,71.251 35.824,71.154 35.642 C 71.056 35.460,70.653 35.173,70.257 35.003 C 69.861 34.833,69.487 34.614,69.427 34.516 C 69.366 34.418,68.889 34.215,68.367 34.064 C 67.844 33.913,67.213 33.647,66.965 33.472 C 66.647 33.248,66.201 33.147,65.465 33.132 C 64.668 33.116,64.196 32.997,63.500 32.637 C 61.856 31.789,55.264 31.785,54.060 32.632 C 53.725 32.867,53.194 32.996,52.274 33.066 C 51.554 33.121,50.766 33.275,50.524 33.408 C 49.888 33.758,49.493 33.954,48.833 34.247 C 48.512 34.389,48.063 34.616,47.833 34.752 C 47.604 34.887,47.154 35.113,46.833 35.255 C 45.791 35.714,45.259 36.033,44.750 36.502 C 44.475 36.756,44.089 37.011,43.893 37.070 C 43.380 37.225,39.326 41.316,39.061 41.947 C 38.939 42.239,38.761 42.525,38.666 42.584 C 38.571 42.642,38.306 43.060,38.077 43.512 C 37.848 43.964,37.595 44.333,37.515 44.333 C 37.435 44.333,37.244 44.646,37.092 45.028 C 36.939 45.410,36.668 45.907,36.491 46.133 C 36.313 46.359,36.086 46.852,35.985 47.230 C 35.885 47.608,35.693 48.039,35.560 48.189 C 35.427 48.338,35.238 48.976,35.141 49.605 C 35.044 50.235,34.772 51.161,34.535 51.664 C 33.906 53.003,33.868 60.879,34.484 62.250 C 34.690 62.708,34.967 63.642,35.099 64.324 C 35.232 65.006,35.458 65.695,35.602 65.854 C 35.746 66.013,35.936 66.467,36.025 66.863 C 36.114 67.259,36.330 67.735,36.505 67.921 C 36.679 68.107,36.928 68.557,37.057 68.921 C 37.266 69.514,37.845 70.433,39.089 72.149 C 39.701 72.993,40.773 74.153,43.428 76.842 C 46.051 79.498,46.474 80.153,46.166 81.084 C 45.824 82.122,44.630 82.478,43.910 81.758 C 43.677 81.525,43.283 81.229,43.035 81.099 C 42.484 80.812,39.194 77.526,38.906 76.977 C 38.792 76.759,38.054 75.934,37.266 75.142 C 36.478 74.351,35.833 73.612,35.833 73.501 C 35.833 73.389,35.646 73.075,35.417 72.803 C 35.187 72.531,35.000 72.208,35.000 72.086 C 35.000 71.965,34.747 71.562,34.437 71.191 C 34.127 70.820,33.824 70.250,33.763 69.925 C 33.702 69.600,33.582 69.333,33.497 69.333 C 33.263 69.333,32.833 68.410,32.833 67.909 C 32.833 67.667,32.689 67.266,32.514 67.019 C 32.338 66.772,32.069 66.089,31.917 65.501 C 31.764 64.913,31.545 64.241,31.429 64.007 C 31.090 63.326,30.602 57.623,30.728 55.816 C 30.986 52.097,31.117 51.062,31.397 50.530 C 31.556 50.226,31.795 49.412,31.927 48.722 C 32.059 48.032,32.308 47.268,32.480 47.025 C 32.652 46.782,32.847 46.261,32.912 45.866 C 32.978 45.472,33.205 44.963,33.415 44.736 C 33.626 44.508,33.845 44.073,33.902 43.767 C 33.960 43.462,34.163 43.071,34.355 42.898 C 34.546 42.725,34.883 42.246,35.103 41.833 C 35.681 40.750,35.854 40.489,36.458 39.791 C 36.756 39.447,37.000 39.073,37.000 38.960 C 37.000 38.692,40.682 35.000,40.950 35.000 C 41.063 35.000,41.401 34.785,41.703 34.523 C 42.004 34.261,42.475 33.920,42.750 33.766 C 43.357 33.426,44.280 32.783,44.802 32.337 C 45.013 32.156,45.498 31.924,45.878 31.821 C 46.259 31.719,46.648 31.531,46.743 31.404 C 46.907 31.186,47.561 30.923,49.917 30.129 C 50.467 29.944,51.442 29.614,52.083 29.395 C 53.797 28.812,64.153 28.850,65.250 29.444 M61.848 33.755 C 64.951 34.006,65.667 34.142,66.166 34.572 C 66.304 34.691,66.714 34.834,67.078 34.890 C 67.441 34.945,67.951 35.147,68.209 35.338 C 68.468 35.529,68.991 35.796,69.373 35.931 C 69.755 36.065,70.183 36.279,70.325 36.406 C 71.041 37.045,74.389 38.667,74.992 38.667 C 75.836 38.667,76.164 39.213,75.837 40.073 C 75.608 40.676,76.015 42.732,76.459 43.213 C 76.647 43.417,76.878 43.867,76.972 44.214 C 77.066 44.560,77.290 44.973,77.470 45.130 C 77.884 45.492,78.050 46.534,77.758 46.934 C 77.519 47.261,77.000 46.540,77.000 45.883 C 77.000 45.717,76.775 45.370,76.500 45.110 C 76.225 44.851,76.000 44.532,76.000 44.401 C 76.000 44.271,75.818 44.006,75.595 43.813 C 75.373 43.619,75.096 43.233,74.981 42.954 C 74.865 42.674,74.391 42.064,73.927 41.598 C 73.463 41.132,72.551 40.188,71.900 39.500 C 69.088 36.532,67.365 36.094,65.680 37.921 C 64.132 39.601,64.801 41.074,69.316 45.917 C 70.260 46.929,70.096 47.833,68.969 47.833 C 68.305 47.833,68.293 47.821,67.080 45.939 C 66.541 45.103,65.671 44.299,64.378 43.443 C 63.715 43.004,63.126 42.569,63.068 42.476 C 62.893 42.192,61.507 41.666,60.945 41.670 C 59.441 41.681,58.198 42.946,58.052 44.614 L 57.968 45.583 60.328 47.917 C 63.979 51.525,64.648 52.719,63.948 54.375 C 63.601 55.195,63.531 55.172,62.773 53.983 C 59.700 49.165,55.328 47.804,54.927 51.542 C 54.763 53.077,54.906 53.425,56.335 54.956 C 57.505 56.209,58.551 57.760,59.487 59.628 C 60.253 61.157,60.317 66.302,59.580 67.044 C 59.376 67.249,59.153 67.679,59.085 68.000 C 58.949 68.645,56.510 71.250,54.833 72.542 C 54.329 72.931,53.856 73.344,53.783 73.459 C 53.709 73.575,53.370 73.811,53.030 73.985 C 52.690 74.158,51.941 74.777,51.366 75.359 C 50.392 76.344,50.124 76.701,49.250 78.172 C 49.067 78.481,48.603 79.075,48.220 79.491 L 47.523 80.249 47.115 79.369 C 46.806 78.703,45.936 77.705,43.542 75.276 C 40.639 72.329,40.060 71.656,39.083 70.095 C 38.900 69.802,38.581 69.351,38.375 69.092 C 38.169 68.833,38.000 68.531,38.000 68.419 C 38.000 68.308,37.776 67.887,37.503 67.483 C 37.230 67.080,37.005 66.575,37.003 66.361 C 37.001 66.147,36.784 65.472,36.521 64.861 C 36.257 64.250,35.996 63.279,35.940 62.704 C 35.883 62.129,35.727 61.445,35.593 61.185 C 34.772 59.598,34.794 55.495,35.637 53.083 C 35.733 52.808,35.888 51.875,35.982 51.009 C 36.105 49.876,36.250 49.303,36.497 48.968 C 36.686 48.712,36.889 48.259,36.947 47.960 C 37.072 47.321,38.056 45.396,38.505 44.914 C 38.677 44.730,38.937 44.317,39.083 43.998 C 39.707 42.630,44.636 37.538,45.811 37.047 C 46.142 36.909,46.623 36.619,46.878 36.404 C 47.134 36.189,47.599 35.965,47.911 35.907 C 48.223 35.848,48.608 35.657,48.766 35.482 C 49.075 35.141,50.458 34.667,51.142 34.667 C 51.370 34.667,51.695 34.541,51.865 34.388 C 52.682 33.648,57.078 33.370,61.848 33.755 M116.000 36.317 C 114.965 36.455,114.847 36.972,114.665 42.167 C 114.500 46.857,114.485 82.921,114.644 90.973 L 114.750 96.363 115.152 96.689 C 115.541 97.004,115.832 97.013,123.961 96.965 L 132.367 96.917 132.931 96.250 L 133.495 95.583 133.498 85.046 L 133.500 74.509 133.958 74.276 C 134.286 74.110,135.370 74.020,137.753 73.960 C 140.910 73.881,141.135 73.854,141.920 73.454 C 142.376 73.222,143.123 72.980,143.578 72.917 C 144.033 72.854,144.611 72.640,144.862 72.443 C 145.112 72.245,145.674 71.821,146.109 71.500 C 148.214 69.949,149.564 68.028,149.988 65.980 C 150.262 64.651,150.495 64.368,150.923 64.840 C 151.241 65.192,151.252 65.595,151.345 80.226 C 151.416 91.349,151.493 95.411,151.644 95.870 C 152.027 97.044,151.688 97.000,160.462 97.000 C 169.462 97.000,169.157 97.043,169.486 95.735 C 170.027 93.587,170.115 49.695,169.581 48.662 C 169.202 47.930,169.103 47.921,161.047 47.868 C 152.345 47.811,152.149 47.831,151.733 48.798 C 151.425 49.512,151.510 49.629,150.611 47.250 C 150.299 46.425,149.999 45.295,149.944 44.739 C 149.787 43.138,147.381 39.652,146.000 39.026 C 145.679 38.880,145.226 38.633,144.993 38.477 C 144.455 38.117,142.363 37.361,141.167 37.095 C 140.662 36.983,140.086 36.803,139.885 36.695 C 139.154 36.302,118.554 35.976,116.000 36.317 M152.555 36.334 C 151.436 36.784,150.718 42.851,151.512 45.131 C 151.914 46.281,155.146 46.603,164.917 46.466 C 169.970 46.395,169.833 46.538,169.833 41.333 C 169.833 35.709,170.640 36.164,160.686 36.177 C 156.413 36.183,152.754 36.253,152.555 36.334 M206.293 36.453 C 205.423 37.004,204.922 39.921,205.510 41.019 C 205.719 41.409,205.923 42.547,206.253 45.167 C 206.386 46.221,206.573 47.571,206.669 48.167 C 206.764 48.762,206.909 49.893,206.991 50.678 C 207.073 51.464,207.255 52.476,207.396 52.928 C 207.536 53.380,207.763 54.987,207.899 56.500 C 208.036 58.012,208.256 59.512,208.388 59.833 C 208.679 60.535,208.800 61.409,208.993 64.194 C 209.073 65.354,209.222 66.458,209.323 66.647 C 209.632 67.226,209.853 68.644,210.001 71.000 C 210.109 72.725,210.221 73.405,210.480 73.917 C 210.747 74.445,210.855 75.156,210.999 77.333 C 211.122 79.192,211.284 80.388,211.500 81.023 C 211.687 81.571,211.928 83.102,212.079 84.690 C 212.222 86.190,212.450 87.792,212.586 88.250 C 212.831 89.078,213.094 91.027,213.306 93.583 C 213.440 95.197,214.006 96.322,214.869 96.685 C 215.318 96.875,217.472 96.917,226.833 96.917 L 238.250 96.917 239.083 96.492 C 240.133 95.957,240.500 95.290,240.499 93.917 C 240.498 93.367,240.570 92.354,240.659 91.667 C 240.748 90.979,240.901 89.715,240.999 88.856 C 241.097 87.998,241.293 87.023,241.433 86.690 C 241.599 86.296,241.767 84.915,241.911 82.750 C 242.048 80.677,242.228 79.165,242.386 78.750 C 242.737 77.828,242.808 77.305,242.991 74.250 C 243.079 72.783,243.257 71.283,243.385 70.917 C 243.707 70.000,243.817 69.154,243.990 66.242 C 244.093 64.527,244.245 63.421,244.471 62.742 C 244.659 62.180,244.847 61.027,244.906 60.083 C 245.066 57.529,245.508 53.631,245.689 53.181 C 245.778 52.960,245.921 51.947,246.006 50.931 C 246.092 49.915,246.240 48.633,246.336 48.083 C 246.720 45.888,247.381 41.145,247.549 39.377 L 247.728 37.504 247.220 36.877 L 246.712 36.250 238.141 36.250 L 229.570 36.250 228.886 36.791 L 228.203 37.333 228.082 40.458 C 228.015 42.177,227.882 43.733,227.786 43.917 C 227.474 44.509,227.200 47.005,227.079 50.371 C 226.992 52.760,226.897 53.739,226.730 53.954 C 226.222 54.608,226.057 53.858,225.851 49.959 C 225.743 47.919,225.543 45.687,225.405 44.999 C 225.268 44.310,225.022 42.435,224.859 40.832 C 224.350 35.849,225.233 36.261,214.946 36.207 C 207.408 36.168,206.713 36.187,206.293 36.453 M133.917 37.153 C 136.705 37.245,138.194 37.364,138.833 37.547 C 139.337 37.691,140.350 37.894,141.083 37.998 C 141.828 38.104,142.603 38.321,142.840 38.490 C 143.073 38.656,143.523 38.845,143.840 38.910 C 144.947 39.137,146.815 40.672,147.700 42.083 C 147.988 42.542,148.424 43.231,148.670 43.616 C 149.049 44.210,149.133 44.564,149.218 45.950 C 149.273 46.848,149.434 47.996,149.575 48.500 C 150.225 50.820,150.398 60.279,149.807 61.190 C 149.564 61.566,149.457 62.257,149.183 65.252 C 148.981 67.455,147.081 70.197,145.167 71.051 C 144.754 71.235,144.229 71.517,144.000 71.678 C 143.771 71.839,143.104 72.050,142.518 72.148 C 141.932 72.245,141.332 72.431,141.184 72.560 C 140.737 72.951,140.330 73.006,136.858 73.146 C 131.786 73.349,132.175 72.321,132.170 85.538 L 132.167 95.659 131.772 95.918 C 131.219 96.280,116.383 96.221,115.942 95.855 C 115.688 95.643,115.668 93.494,115.681 67.938 C 115.696 39.573,115.730 37.439,116.168 37.162 C 116.469 36.972,128.247 36.965,133.917 37.153 M168.558 37.312 C 168.798 37.511,168.833 37.990,168.833 41.037 L 168.833 44.533 168.316 45.016 L 167.798 45.500 160.603 45.500 C 151.427 45.500,152.167 45.846,152.167 41.546 C 152.167 38.619,152.312 37.748,152.858 37.395 C 153.516 36.971,168.055 36.894,168.558 37.312 M222.636 37.176 C 223.731 37.410,223.775 37.542,223.989 41.190 C 224.283 46.211,224.301 46.393,224.555 47.000 C 224.888 47.793,225.001 49.278,225.147 54.750 C 225.251 58.647,225.318 59.505,225.553 59.952 C 225.734 60.296,225.895 61.215,226.002 62.519 C 226.186 64.775,226.309 65.080,226.927 64.799 C 227.207 64.671,227.356 64.435,227.421 64.016 C 227.472 63.686,227.551 63.192,227.596 62.917 C 227.641 62.642,227.747 59.334,227.833 55.566 C 227.955 50.139,228.041 48.557,228.245 47.956 C 228.689 46.648,228.800 45.684,228.911 42.167 C 229.035 38.225,229.155 37.569,229.800 37.293 C 230.111 37.161,232.748 37.081,238.355 37.036 L 246.461 36.971 246.730 37.356 C 247.063 37.831,247.076 38.536,246.764 39.140 C 246.425 39.796,246.173 41.351,245.997 43.880 C 245.912 45.092,245.695 46.833,245.515 47.750 C 245.334 48.667,245.141 50.017,245.086 50.750 C 245.031 51.483,244.881 52.721,244.753 53.500 C 244.626 54.279,244.400 55.967,244.253 57.250 C 244.105 58.533,243.881 60.108,243.755 60.750 C 243.501 62.048,243.229 64.351,243.076 66.500 C 243.021 67.279,242.877 68.070,242.756 68.258 C 242.507 68.646,242.428 69.313,242.182 73.150 C 242.063 74.998,241.928 76.002,241.765 76.251 C 241.395 76.815,241.187 78.321,241.075 81.250 C 241.006 83.034,240.899 84.032,240.749 84.266 C 240.410 84.798,240.199 86.212,240.079 88.766 C 240.012 90.194,239.848 91.533,239.653 92.257 C 239.478 92.902,239.287 93.894,239.228 94.460 C 239.042 96.234,240.180 96.083,226.989 96.083 C 214.002 96.083,215.207 96.224,214.641 94.640 C 214.275 93.616,213.837 90.572,213.835 89.036 C 213.834 88.460,213.717 87.711,213.575 87.372 C 213.131 86.308,212.994 85.491,212.845 83.000 C 212.733 81.139,212.621 80.408,212.355 79.820 C 212.101 79.258,211.982 78.553,211.907 77.153 C 211.850 76.106,211.626 74.425,211.408 73.417 C 211.190 72.408,210.929 70.683,210.827 69.583 C 210.725 68.483,210.538 67.283,210.411 66.917 C 210.283 66.550,210.059 64.975,209.911 63.417 C 209.764 61.858,209.541 60.283,209.417 59.917 C 209.293 59.550,209.105 58.313,209.000 57.167 C 208.895 56.021,208.709 54.746,208.586 54.333 C 208.321 53.448,208.051 51.505,207.903 49.418 C 207.845 48.594,207.665 47.581,207.503 47.168 C 207.171 46.316,207.042 45.360,206.913 42.798 C 206.845 41.448,206.719 40.736,206.396 39.881 C 205.919 38.617,205.935 37.581,206.437 37.214 C 206.815 36.938,221.367 36.903,222.636 37.176 M69.418 37.990 C 69.967 38.351,70.688 38.932,71.020 39.282 C 73.092 41.463,73.982 42.467,74.170 42.833 C 74.288 43.063,74.697 43.663,75.080 44.167 C 75.462 44.671,76.100 45.683,76.498 46.417 C 76.896 47.150,77.350 47.938,77.508 48.167 C 77.666 48.396,77.872 48.862,77.966 49.204 C 78.060 49.545,78.294 50.044,78.486 50.313 C 78.678 50.583,78.952 51.391,79.096 52.110 C 79.239 52.829,79.503 53.737,79.681 54.129 C 79.859 54.520,80.084 55.210,80.181 55.661 C 80.324 56.327,80.462 56.543,80.920 56.813 L 81.484 57.146 81.602 56.781 C 81.807 56.144,81.730 54.601,81.467 54.083 C 81.327 53.808,81.166 53.171,81.109 52.667 C 80.854 50.410,80.687 49.523,80.421 49.009 C 80.264 48.705,80.022 48.075,79.884 47.607 C 79.745 47.140,79.489 46.577,79.316 46.356 C 79.142 46.136,79.000 45.864,79.000 45.753 C 79.000 45.641,78.776 45.220,78.503 44.817 C 78.230 44.413,78.005 43.963,78.003 43.815 C 78.001 43.667,77.811 43.268,77.579 42.927 C 75.402 39.718,79.283 37.766,81.606 40.902 C 82.718 42.403,82.974 42.795,83.086 43.167 C 83.154 43.396,83.340 43.771,83.499 44.000 C 83.657 44.229,83.882 44.717,83.998 45.083 C 84.114 45.450,84.320 45.878,84.456 46.034 C 84.593 46.190,84.809 46.816,84.936 47.426 C 85.064 48.036,85.317 48.743,85.498 48.997 C 85.731 49.325,85.897 50.030,86.070 51.437 C 86.204 52.526,86.462 54.107,86.642 54.951 L 86.971 56.484 86.573 58.451 C 86.355 59.532,86.125 61.155,86.062 62.058 C 85.986 63.153,85.843 63.901,85.633 64.308 C 85.460 64.643,85.207 65.438,85.071 66.076 C 84.935 66.713,84.715 67.354,84.583 67.500 C 84.450 67.647,84.226 68.097,84.083 68.500 C 83.941 68.903,83.723 69.350,83.599 69.492 C 83.476 69.634,83.219 70.106,83.030 70.542 C 82.840 70.977,82.616 71.333,82.532 71.333 C 82.447 71.333,82.217 71.690,82.020 72.125 C 81.559 73.142,81.156 73.736,79.875 75.277 C 79.302 75.967,78.833 76.597,78.833 76.677 C 78.833 76.757,77.765 77.916,76.458 79.253 C 73.369 82.414,72.890 82.996,72.072 84.583 C 71.836 85.042,71.498 85.679,71.322 86.000 C 71.145 86.321,71.000 86.832,71.000 87.135 C 71.000 87.439,70.811 88.087,70.580 88.575 C 70.252 89.269,70.141 89.821,70.072 91.106 C 69.933 93.705,69.846 94.170,69.411 94.604 L 69.015 95.000 58.663 95.000 C 52.160 95.000,48.197 94.939,48.004 94.835 C 47.435 94.531,47.109 93.307,47.236 91.959 C 47.298 91.294,47.414 90.037,47.492 89.167 C 47.858 85.082,48.053 83.532,48.279 82.917 C 48.413 82.550,48.663 81.811,48.835 81.274 C 49.006 80.737,49.256 80.175,49.389 80.024 C 49.523 79.873,49.771 79.484,49.941 79.158 C 50.111 78.833,50.400 78.312,50.583 78.000 C 50.988 77.314,53.404 74.833,53.669 74.833 C 53.773 74.833,54.284 74.430,54.804 73.937 C 55.324 73.445,55.908 72.993,56.101 72.934 C 56.626 72.773,59.000 70.323,59.000 69.942 C 59.000 69.762,59.188 69.369,59.417 69.069 C 59.646 68.768,59.833 68.339,59.833 68.115 C 59.833 67.890,60.039 67.267,60.290 66.728 C 61.814 63.461,60.245 58.312,56.557 54.477 C 55.884 53.778,55.325 53.065,55.314 52.894 C 55.304 52.723,55.270 52.363,55.239 52.093 C 55.123 51.092,56.150 49.834,57.083 49.835 C 58.427 49.836,60.673 51.768,62.445 54.448 C 63.537 56.098,64.601 56.594,64.991 55.635 C 65.077 55.423,65.301 55.025,65.489 54.750 C 65.919 54.122,65.947 53.228,65.542 53.089 C 65.264 52.994,64.787 52.392,63.821 50.917 C 63.581 50.550,62.944 49.837,62.407 49.333 C 61.869 48.829,60.799 47.743,60.028 46.920 L 58.627 45.424 58.728 44.420 C 58.955 42.171,61.579 41.361,63.011 43.099 C 63.143 43.258,63.636 43.636,64.109 43.939 C 64.581 44.242,65.256 44.835,65.609 45.257 C 68.627 48.868,68.951 49.133,70.120 48.943 C 71.318 48.749,71.308 47.342,70.099 46.014 C 69.717 45.594,69.209 44.987,68.970 44.667 C 68.731 44.346,68.033 43.558,67.418 42.917 C 65.179 40.580,64.964 38.645,66.833 37.657 C 67.732 37.181,68.299 37.254,69.418 37.990 M307.833 45.894 C 306.456 46.296,305.011 46.993,304.269 47.614 C 304.005 47.835,303.510 48.158,303.170 48.332 L 302.551 48.647 301.735 48.234 L 300.919 47.821 293.130 47.869 L 285.341 47.917 284.892 48.366 C 284.253 49.004,284.211 49.907,284.076 65.750 C 283.941 81.695,284.168 95.197,284.586 96.005 C 285.126 97.050,284.850 97.020,293.500 96.966 L 301.367 96.917 301.931 96.250 L 302.495 95.583 302.502 83.750 C 302.511 68.172,302.573 67.572,304.223 67.082 C 304.684 66.945,305.125 66.833,305.204 66.833 C 305.282 66.833,305.555 66.679,305.810 66.491 C 306.882 65.698,310.167 65.907,310.167 66.768 C 310.167 68.268,313.127 72.191,315.333 73.616 C 315.929 74.001,316.717 74.539,317.083 74.811 C 317.450 75.084,318.162 75.514,318.667 75.768 C 319.171 76.021,319.771 76.393,320.000 76.595 C 320.229 76.796,320.700 77.061,321.046 77.182 C 321.446 77.323,321.794 77.604,322.002 77.957 L 322.328 78.510 321.903 78.672 C 321.664 78.763,319.348 78.834,316.614 78.834 C 311.718 78.835,310.737 78.930,310.310 79.445 C 309.945 79.885,310.009 85.956,310.391 87.167 C 310.550 87.671,310.816 88.571,310.981 89.167 C 311.902 92.491,316.134 96.278,319.735 97.003 C 320.277 97.112,321.064 97.357,321.485 97.547 C 323.183 98.315,333.916 98.122,334.981 97.305 C 335.199 97.137,335.499 97.000,335.647 96.999 C 335.796 96.998,336.142 96.879,336.417 96.735 C 336.692 96.590,337.254 96.341,337.667 96.182 C 340.529 95.079,343.495 91.505,344.100 88.431 C 344.225 87.797,344.466 87.122,344.635 86.931 C 344.805 86.740,345.035 86.262,345.146 85.870 C 345.419 84.913,345.617 85.104,345.756 86.460 C 345.824 87.113,346.036 87.897,346.263 88.333 C 346.477 88.746,346.895 89.597,347.191 90.225 C 348.058 92.065,351.509 95.398,353.132 95.963 C 353.434 96.068,353.884 96.297,354.132 96.471 C 354.380 96.645,354.883 96.841,355.250 96.906 C 355.617 96.972,356.479 97.225,357.167 97.469 L 358.417 97.912 363.833 97.914 C 368.641 97.916,369.297 97.885,369.667 97.636 C 369.896 97.481,370.608 97.225,371.250 97.066 C 371.892 96.908,372.642 96.609,372.917 96.402 C 373.192 96.195,373.642 95.970,373.917 95.902 C 375.938 95.402,380.560 89.584,380.922 87.083 C 380.988 86.625,381.214 85.790,381.423 85.229 C 381.762 84.318,381.816 83.784,381.921 80.312 L 382.038 76.417 381.644 76.065 C 380.866 75.370,380.430 75.333,372.933 75.336 C 368.983 75.337,365.667 75.394,365.567 75.461 C 365.079 75.786,364.949 76.555,364.725 80.403 C 364.436 85.390,363.778 87.848,363.186 86.149 C 362.816 85.088,362.938 74.378,363.322 74.173 C 363.532 74.060,366.583 74.000,372.078 74.000 C 381.704 74.000,381.510 74.024,381.845 72.804 C 382.252 71.320,381.937 62.148,381.428 60.679 C 381.148 59.869,381.000 59.085,381.000 58.411 C 381.000 57.599,380.899 57.190,380.525 56.482 C 380.264 55.988,379.998 55.369,379.934 55.108 C 379.725 54.249,376.021 50.000,375.482 50.000 C 375.414 50.000,375.147 49.824,374.888 49.609 C 374.629 49.393,374.192 49.163,373.917 49.096 C 373.642 49.029,373.192 48.803,372.917 48.594 C 372.642 48.385,371.968 48.084,371.419 47.924 C 370.870 47.765,370.195 47.516,369.919 47.372 C 368.873 46.826,361.967 46.482,358.961 46.827 C 356.440 47.116,352.457 48.535,351.083 49.634 C 348.946 51.342,347.286 53.193,347.069 54.108 C 347.007 54.369,346.792 54.808,346.592 55.083 C 345.657 56.367,345.026 59.859,345.011 63.833 C 345.001 66.552,344.671 75.039,344.572 75.146 C 344.453 75.274,343.407 74.275,343.148 73.786 C 342.872 73.264,340.711 71.000,340.489 71.000 C 340.421 71.000,340.064 70.756,339.697 70.458 C 339.330 70.160,338.640 69.692,338.165 69.417 C 337.690 69.142,337.102 68.759,336.859 68.567 C 336.616 68.375,336.192 68.163,335.917 68.096 C 335.642 68.029,335.191 67.802,334.915 67.592 C 334.639 67.382,334.169 67.157,333.869 67.091 C 333.570 67.026,333.121 66.800,332.871 66.591 C 332.621 66.381,332.181 66.158,331.892 66.095 C 331.604 66.033,331.241 65.841,331.087 65.670 C 330.494 65.016,331.151 64.923,337.083 64.830 C 342.914 64.739,343.257 64.692,343.761 63.923 C 344.261 63.160,344.035 56.527,343.472 55.417 C 343.239 54.958,343.001 54.332,342.942 54.026 C 342.780 53.176,340.631 50.788,339.034 49.680 C 338.329 49.191,335.929 48.001,335.639 47.996 C 335.517 47.994,334.967 47.800,334.417 47.565 C 331.934 46.505,320.852 46.382,319.302 47.398 C 319.088 47.538,318.394 47.773,317.759 47.921 C 317.094 48.075,316.402 48.360,316.124 48.594 C 315.858 48.817,315.544 49.000,315.426 49.000 C 314.870 49.000,312.402 50.967,311.907 51.806 C 311.275 52.875,311.015 52.271,310.896 49.459 C 310.733 45.564,310.379 45.153,307.833 45.894 M309.818 46.710 C 309.897 46.917,310.012 48.586,310.073 50.418 C 310.198 54.144,310.261 54.667,310.586 54.667 C 311.180 54.667,311.641 54.331,311.754 53.816 C 311.931 53.010,314.946 50.072,315.844 49.830 C 316.215 49.731,316.646 49.521,316.803 49.364 C 318.075 48.091,327.106 46.922,330.083 47.644 C 330.450 47.733,331.387 47.896,332.167 48.007 C 333.680 48.222,336.123 48.984,336.824 49.460 C 337.058 49.619,337.452 49.838,337.700 49.946 C 339.998 50.954,342.069 53.640,342.334 55.958 C 342.405 56.577,342.546 57.421,342.647 57.833 C 342.982 59.201,343.155 63.377,342.890 63.685 C 342.686 63.920,341.840 63.963,335.983 64.036 C 328.653 64.128,328.748 64.114,329.019 65.092 C 329.109 65.418,329.356 65.705,329.705 65.888 C 330.005 66.045,330.492 66.341,330.788 66.545 C 331.965 67.358,332.537 67.663,333.211 67.841 C 333.599 67.942,334.179 68.197,334.500 68.406 C 335.488 69.049,336.202 69.454,337.421 70.060 C 338.065 70.381,338.835 70.911,339.133 71.238 C 339.431 71.566,339.789 71.833,339.928 71.833 C 340.758 71.833,342.820 74.734,343.095 76.289 C 343.156 76.634,343.358 77.554,343.544 78.333 C 344.117 80.737,344.024 84.876,343.325 88.083 C 343.245 88.450,343.135 88.984,343.081 89.269 C 343.028 89.555,342.836 89.947,342.655 90.141 C 342.474 90.335,342.283 90.712,342.229 90.980 C 341.939 92.430,337.592 95.803,335.622 96.106 C 335.234 96.165,334.579 96.345,334.167 96.505 C 332.040 97.329,323.877 97.457,322.250 96.691 C 321.792 96.476,320.908 96.240,320.286 96.168 C 319.515 96.079,318.958 95.904,318.536 95.619 C 318.195 95.388,317.729 95.147,317.500 95.081 C 315.401 94.482,311.833 90.464,311.833 88.698 C 311.833 88.321,311.689 87.647,311.513 87.200 C 310.780 85.340,310.603 80.660,311.241 80.021 C 311.477 79.785,312.263 79.739,317.381 79.664 C 322.976 79.581,323.287 79.560,324.042 79.211 C 324.988 78.774,325.043 78.446,324.250 77.978 C 323.929 77.789,323.667 77.575,323.667 77.503 C 323.667 77.432,323.347 77.292,322.956 77.194 C 322.565 77.096,322.086 76.866,321.890 76.684 C 321.694 76.501,321.246 76.232,320.894 76.085 C 320.542 75.938,320.104 75.678,319.919 75.508 C 319.734 75.338,319.321 75.079,319.000 74.932 C 317.974 74.465,316.769 73.650,316.107 72.977 C 315.753 72.617,315.228 72.223,314.940 72.101 C 314.206 71.789,313.201 70.789,312.901 70.072 C 312.762 69.739,312.504 69.311,312.328 69.122 C 312.152 68.933,311.897 68.397,311.761 67.931 C 311.373 66.602,310.639 65.572,309.907 65.330 C 308.982 65.025,305.598 65.256,305.017 65.665 C 304.778 65.832,304.317 66.014,303.991 66.069 C 303.192 66.205,302.322 67.140,301.729 68.500 L 301.257 69.583 301.207 82.624 L 301.157 95.665 300.764 95.923 C 300.102 96.356,286.009 96.211,285.517 95.766 L 285.167 95.448 285.169 72.516 C 285.171 59.903,285.227 49.501,285.294 49.400 C 285.648 48.871,286.182 48.833,293.385 48.833 C 301.511 48.833,300.846 48.713,301.142 50.236 C 301.247 50.778,301.358 51.247,301.388 51.277 C 301.583 51.472,302.796 50.616,303.035 50.114 C 303.187 49.795,303.598 49.319,303.948 49.058 C 304.297 48.797,304.730 48.451,304.909 48.289 C 305.089 48.127,305.536 47.913,305.903 47.815 C 306.270 47.716,306.648 47.531,306.743 47.405 C 306.904 47.192,308.980 46.386,309.462 46.350 C 309.579 46.341,309.739 46.503,309.818 46.710 M188.083 46.620 C 185.429 46.694,183.124 47.015,182.234 47.434 C 181.767 47.653,181.279 47.835,181.151 47.836 C 180.588 47.844,177.392 49.624,175.942 50.738 C 173.818 52.371,172.001 55.068,171.998 56.597 C 171.997 57.147,171.849 57.718,171.547 58.333 L 171.098 59.250 171.035 70.707 C 170.994 78.250,171.031 82.406,171.145 82.873 C 171.240 83.264,171.435 83.996,171.578 84.500 C 171.721 85.004,171.904 86.001,171.985 86.715 C 172.092 87.669,172.248 88.189,172.571 88.677 C 172.812 89.042,173.058 89.582,173.117 89.877 C 173.239 90.489,174.050 91.838,174.419 92.045 C 174.555 92.121,174.790 92.422,174.941 92.714 C 175.383 93.569,176.540 94.815,177.060 94.996 C 177.324 95.088,178.144 95.520,178.883 95.957 C 181.905 97.743,183.545 98.047,189.659 97.951 L 194.250 97.880 196.333 97.138 C 197.479 96.730,198.717 96.195,199.083 95.948 C 199.450 95.701,200.012 95.322,200.333 95.106 C 201.672 94.203,205.000 90.274,205.000 89.596 C 205.000 89.515,205.185 89.206,205.410 88.910 C 205.647 88.600,205.923 87.884,206.061 87.218 C 206.194 86.584,206.431 85.769,206.588 85.407 C 206.924 84.637,207.302 78.462,207.096 77.104 C 206.833 75.367,206.279 75.267,197.417 75.363 C 190.256 75.440,190.500 75.268,190.500 80.233 C 190.499 84.224,190.068 86.801,189.496 86.229 C 189.079 85.813,189.002 83.525,189.005 71.667 C 189.008 58.642,189.075 57.343,189.711 57.977 C 189.858 58.124,189.940 59.344,190.000 62.252 C 190.074 65.868,190.117 66.355,190.381 66.619 C 190.656 66.894,191.242 66.920,198.131 66.967 C 206.726 67.025,206.599 67.036,206.942 66.215 C 207.285 65.394,207.095 59.851,206.698 59.083 C 206.556 58.808,206.378 58.208,206.303 57.750 C 205.977 55.756,205.862 55.363,205.331 54.417 C 204.619 53.146,203.064 51.320,202.041 50.552 C 201.606 50.226,201.063 49.786,200.833 49.574 C 200.604 49.363,200.192 49.138,199.917 49.073 C 199.642 49.009,199.191 48.788,198.915 48.583 C 198.639 48.378,198.158 48.155,197.845 48.086 C 197.533 48.017,196.769 47.745,196.148 47.481 C 195.516 47.212,194.716 47.000,194.333 47.000 C 193.956 47.000,193.333 46.927,192.949 46.839 C 192.166 46.658,190.091 46.565,188.083 46.620 M259.246 46.900 C 258.419 47.016,257.555 47.232,257.327 47.381 C 257.099 47.531,256.408 47.770,255.792 47.913 C 254.734 48.158,252.985 49.019,252.859 49.356 C 252.828 49.441,252.453 49.691,252.026 49.911 C 249.775 51.074,247.421 54.532,246.913 57.422 C 246.783 58.159,246.568 59.134,246.434 59.589 C 245.669 62.196,245.649 80.618,246.408 83.917 C 246.534 84.467,246.721 85.472,246.823 86.151 C 246.925 86.830,247.153 87.655,247.330 87.984 C 247.507 88.314,247.724 88.864,247.812 89.207 C 248.304 91.120,252.230 95.319,254.132 95.967 C 254.434 96.070,254.884 96.296,255.132 96.469 C 255.380 96.642,256.057 96.874,256.636 96.985 C 257.214 97.097,258.039 97.347,258.469 97.541 C 260.312 98.375,270.086 98.146,272.083 97.222 C 272.542 97.010,273.039 96.836,273.188 96.835 C 273.337 96.834,273.549 96.725,273.659 96.592 C 273.769 96.459,274.210 96.221,274.638 96.062 C 276.425 95.398,281.000 90.743,281.000 89.589 C 281.000 89.504,281.195 89.231,281.434 88.981 C 281.777 88.624,281.895 88.286,281.994 87.387 C 282.064 86.750,282.289 85.916,282.503 85.498 C 283.073 84.385,283.241 76.662,282.709 76.008 C 282.244 75.438,281.162 75.356,273.900 75.344 C 265.460 75.329,266.067 74.982,265.960 79.887 C 265.881 83.480,265.277 86.391,264.563 86.620 C 264.010 86.797,263.716 74.777,264.262 74.323 C 264.502 74.124,266.018 74.069,273.241 74.000 C 282.760 73.909,282.680 73.918,282.932 72.916 C 283.276 71.543,282.883 60.916,282.442 59.679 C 282.161 58.892,282.000 58.097,282.000 57.494 C 282.000 56.691,281.923 56.449,281.500 55.917 C 281.225 55.571,281.000 55.117,281.000 54.910 C 281.000 54.044,276.306 49.423,274.965 48.968 C 274.663 48.866,274.217 48.643,273.972 48.473 C 273.728 48.303,273.278 48.116,272.972 48.058 C 272.667 47.999,272.065 47.776,271.635 47.561 C 270.134 46.812,262.720 46.417,259.246 46.900 M78.667 47.667 C 78.667 48.151,78.403 48.201,78.200 47.756 C 78.063 47.456,78.067 47.337,78.217 47.284 C 78.510 47.178,78.667 47.312,78.667 47.667 M192.206 47.661 C 192.597 47.749,193.554 47.930,194.333 48.062 C 196.587 48.444,199.463 49.734,200.798 50.962 C 201.224 51.353,201.832 51.803,202.150 51.962 C 203.271 52.521,204.830 55.106,205.288 57.167 C 206.014 60.433,206.355 65.349,205.891 65.862 C 205.539 66.251,191.786 66.342,191.300 65.958 C 191.076 65.781,191.023 65.122,190.955 61.593 L 190.874 57.436 190.190 56.798 C 189.416 56.076,189.134 56.123,188.561 57.070 C 188.264 57.560,188.250 58.216,188.250 71.750 L 188.250 85.917 188.750 86.916 C 189.502 88.420,190.659 88.642,190.919 87.333 C 190.964 87.104,191.184 86.354,191.407 85.667 C 191.770 84.545,191.824 84.009,191.928 80.461 C 192.023 77.223,192.090 76.466,192.297 76.294 C 192.642 76.008,204.286 75.885,205.295 76.156 C 206.190 76.397,206.260 76.828,206.011 80.599 C 205.839 83.198,205.752 83.892,205.337 86.000 C 205.255 86.412,205.144 87.024,205.090 87.358 C 205.036 87.693,204.848 88.148,204.673 88.371 C 204.497 88.594,204.307 88.964,204.249 89.193 C 204.192 89.423,203.970 89.799,203.757 90.028 C 203.544 90.258,203.255 90.665,203.116 90.931 C 202.651 91.820,200.528 93.965,199.914 94.168 C 199.595 94.273,199.333 94.414,199.333 94.480 C 199.333 94.782,197.312 95.999,196.639 96.103 C 196.242 96.164,195.559 96.353,195.122 96.522 C 192.999 97.346,184.703 97.433,183.309 96.646 C 182.871 96.399,182.110 96.157,181.559 96.090 C 180.953 96.015,180.319 95.802,179.885 95.527 C 179.502 95.283,178.764 94.826,178.247 94.512 C 177.185 93.867,175.251 91.863,174.895 91.038 C 174.765 90.738,174.513 90.346,174.334 90.167 C 174.155 89.988,173.959 89.634,173.899 89.379 C 173.838 89.125,173.602 88.467,173.374 87.917 C 172.890 86.751,172.710 85.625,172.492 82.417 C 172.405 81.133,172.254 79.596,172.156 79.000 C 171.817 76.935,171.767 65.437,172.092 64.000 C 172.247 63.313,172.406 61.962,172.445 61.000 C 172.484 60.038,172.587 58.842,172.675 58.344 C 172.762 57.846,172.833 57.187,172.833 56.879 C 172.833 56.342,173.083 55.769,173.879 54.484 C 174.491 53.497,175.811 52.083,176.821 51.333 C 177.130 51.104,177.641 50.681,177.957 50.393 C 178.273 50.104,178.751 49.825,179.019 49.771 C 179.287 49.718,179.655 49.535,179.837 49.366 C 180.254 48.977,182.955 48.070,184.167 47.912 C 184.671 47.847,185.496 47.738,186.000 47.671 C 187.392 47.486,191.403 47.479,192.206 47.661 M268.833 47.881 C 269.961 48.017,271.059 48.252,271.500 48.454 C 271.912 48.642,272.512 48.849,272.833 48.913 C 273.154 48.978,273.679 49.199,274.000 49.405 C 274.571 49.771,274.816 49.933,276.000 50.729 C 277.472 51.720,279.682 54.172,280.036 55.209 C 280.137 55.506,280.352 55.921,280.512 56.129 C 280.673 56.338,280.894 57.050,281.003 57.713 C 281.113 58.375,281.341 59.517,281.510 60.250 C 282.131 62.931,282.417 72.418,281.891 72.855 C 281.669 73.039,279.950 73.100,272.933 73.170 C 266.905 73.231,264.116 73.317,263.812 73.450 C 263.086 73.770,262.999 74.362,263.014 78.900 C 263.041 87.469,263.174 88.084,264.972 87.967 C 265.695 87.920,265.748 87.883,265.887 87.333 C 265.968 87.013,266.186 86.263,266.373 85.667 C 266.657 84.758,266.729 83.944,266.814 80.631 C 266.905 77.143,266.952 76.643,267.214 76.381 C 267.530 76.065,280.459 75.908,281.523 76.207 C 282.220 76.402,282.278 79.181,281.669 83.167 C 281.578 83.762,281.393 85.072,281.257 86.077 C 281.096 87.269,280.903 88.052,280.703 88.327 C 280.534 88.560,280.225 89.106,280.016 89.542 C 279.808 89.977,279.574 90.333,279.498 90.333 C 279.422 90.333,279.274 90.591,279.170 90.907 C 278.801 92.024,273.950 95.994,272.942 96.004 C 272.745 96.005,272.058 96.193,271.417 96.421 C 268.775 97.359,261.081 97.476,259.047 96.609 C 258.477 96.366,257.704 96.167,257.330 96.167 C 256.648 96.167,255.667 95.783,255.667 95.516 C 255.667 95.437,255.328 95.288,254.913 95.183 C 254.499 95.079,254.013 94.847,253.834 94.667 C 253.655 94.488,253.240 94.229,252.912 94.092 C 252.162 93.779,250.627 92.190,249.943 91.018 C 249.750 90.687,249.468 90.281,249.316 90.115 C 249.164 89.949,248.890 89.387,248.705 88.865 C 248.080 87.091,247.823 86.417,247.581 85.917 C 246.996 84.704,246.710 64.310,247.237 61.393 C 247.574 59.525,247.648 59.065,247.824 57.717 C 247.977 56.556,249.168 53.667,249.494 53.667 C 249.567 53.667,249.722 53.434,249.840 53.150 C 249.958 52.866,250.511 52.263,251.069 51.811 C 251.627 51.358,252.368 50.759,252.715 50.478 C 253.063 50.198,253.623 49.893,253.960 49.800 C 254.297 49.707,254.650 49.526,254.745 49.398 C 254.971 49.092,258.080 48.001,258.738 47.997 C 259.019 47.995,259.625 47.885,260.083 47.753 C 261.104 47.458,265.891 47.528,268.833 47.881 M366.147 47.654 C 366.479 47.739,367.387 47.899,368.167 48.008 C 369.793 48.237,371.640 48.829,372.495 49.395 C 373.475 50.045,374.216 50.479,374.917 50.812 C 377.666 52.118,379.870 56.005,380.253 60.222 C 380.388 61.704,380.572 63.329,380.662 63.833 C 380.893 65.123,381.167 68.913,381.167 70.831 C 381.167 73.306,382.164 73.066,371.441 73.176 C 366.478 73.227,362.401 73.283,362.381 73.301 C 361.982 73.669,361.818 85.815,362.199 86.833 C 362.960 88.871,364.573 88.485,365.068 86.146 C 365.566 83.796,365.672 82.866,365.804 79.707 C 365.910 77.146,365.976 76.619,366.221 76.374 C 366.600 75.995,380.251 75.920,380.703 76.295 C 381.154 76.668,381.211 78.019,380.838 79.480 C 380.629 80.300,380.497 81.367,380.493 82.278 C 380.481 84.581,379.966 87.754,379.527 88.221 C 379.329 88.432,379.167 88.762,379.167 88.953 C 379.167 89.145,378.904 89.616,378.583 90.000 C 378.262 90.384,378.000 90.801,378.000 90.926 C 378.000 91.340,375.462 93.987,374.880 94.179 C 374.580 94.278,374.333 94.427,374.333 94.510 C 374.333 94.592,374.015 94.820,373.625 95.016 C 373.235 95.212,372.791 95.482,372.638 95.617 C 372.484 95.752,371.697 96.034,370.888 96.244 C 370.079 96.454,369.192 96.722,368.917 96.839 C 367.903 97.270,359.935 97.269,358.750 96.838 C 358.200 96.638,357.337 96.399,356.833 96.306 C 356.329 96.214,355.746 96.105,355.537 96.065 C 355.329 96.025,355.014 95.847,354.838 95.671 C 354.662 95.495,354.210 95.268,353.833 95.167 C 353.457 95.065,353.005 94.838,352.828 94.662 C 352.652 94.485,352.262 94.237,351.962 94.111 C 350.893 93.660,348.661 91.137,347.773 89.375 C 347.623 89.077,347.384 88.613,347.243 88.344 C 347.102 88.074,346.919 87.440,346.836 86.935 C 346.754 86.429,346.613 85.878,346.524 85.711 C 345.845 84.442,345.771 60.342,346.440 58.417 C 346.631 57.867,346.878 57.043,346.987 56.585 C 347.097 56.128,347.282 55.641,347.398 55.502 C 347.515 55.363,347.737 54.906,347.892 54.486 C 348.207 53.631,350.236 51.312,351.028 50.902 C 351.297 50.763,351.660 50.507,351.833 50.333 C 352.007 50.160,352.469 49.932,352.859 49.826 C 353.250 49.721,353.648 49.529,353.743 49.400 C 354.418 48.487,359.083 47.564,363.231 47.523 C 364.503 47.510,365.816 47.570,366.147 47.654 M132.971 48.351 C 132.703 48.452,132.455 48.723,132.346 49.034 C 132.098 49.747,132.102 60.264,132.351 60.979 C 132.825 62.338,134.127 62.003,135.365 60.203 L 135.857 59.488 135.804 55.036 L 135.750 50.583 135.189 49.500 C 134.880 48.904,134.617 48.405,134.605 48.390 C 134.489 48.247,133.319 48.219,132.971 48.351 M165.167 48.777 C 167.828 48.874,168.261 48.928,168.530 49.197 C 168.828 49.495,168.838 50.296,168.795 72.295 C 168.747 96.796,168.793 95.602,167.869 95.985 C 167.121 96.295,152.819 96.168,152.434 95.848 C 151.990 95.479,152.096 50.137,152.543 49.455 C 153.058 48.668,156.722 48.471,165.167 48.777 M134.726 53.860 C 134.751 56.534,134.645 57.333,134.267 57.333 C 133.292 57.333,133.245 52.373,134.209 51.201 C 134.582 50.748,134.703 51.374,134.726 53.860 M72.448 53.142 C 71.972 53.689,71.993 54.924,72.493 55.712 C 72.742 56.104,72.998 56.648,73.064 56.921 C 73.230 57.618,74.331 59.833,74.511 59.833 C 74.792 59.833,74.881 58.954,74.776 57.236 C 74.675 55.591,74.576 55.221,73.773 53.512 C 73.523 52.979,72.773 52.770,72.448 53.142 M73.861 55.245 C 74.049 55.656,73.841 56.167,73.485 56.167 C 73.242 56.167,72.977 55.501,73.085 55.160 C 73.229 54.707,73.636 54.751,73.861 55.245 M263.687 56.726 L 263.125 57.309 263.104 60.378 C 263.082 63.695,263.103 63.786,264.015 64.258 C 264.613 64.567,265.460 64.293,265.679 63.719 C 266.042 62.764,265.789 56.889,265.367 56.467 C 264.944 56.044,264.241 56.153,263.687 56.726 M325.679 56.737 L 325.126 57.308 325.195 59.395 C 325.251 61.061,325.322 61.544,325.550 61.796 C 325.706 61.969,325.951 62.453,326.094 62.871 C 326.378 63.706,327.149 64.054,327.652 63.575 C 327.975 63.267,328.119 58.623,327.846 57.309 C 327.569 55.977,326.651 55.735,325.679 56.737 M362.868 56.341 C 362.179 56.618,362.000 57.420,362.000 60.224 C 362.000 63.571,362.043 63.763,362.879 64.190 L 363.546 64.530 364.065 64.012 L 364.583 63.494 364.583 60.622 C 364.583 56.728,364.212 55.802,362.868 56.341 M326.833 58.165 C 327.143 58.915,326.786 61.175,326.415 60.804 C 326.240 60.629,326.118 58.897,326.236 58.266 C 326.373 57.536,326.559 57.504,326.833 58.165 M363.797 60.633 C 363.846 63.357,363.744 63.910,363.263 63.511 C 363.048 63.332,363.000 62.894,363.001 61.105 C 363.003 56.808,363.721 56.383,363.797 60.633 M264.851 58.292 C 265.099 58.937,264.981 63.253,264.708 63.525 C 264.242 63.991,264.085 63.386,264.030 60.920 C 263.966 58.107,264.331 56.939,264.851 58.292 M325.765 80.346 C 325.528 80.628,325.328 81.022,325.322 81.221 C 325.272 82.825,325.387 84.528,325.583 85.083 C 325.712 85.450,325.903 86.184,326.006 86.714 C 326.169 87.554,326.271 87.728,326.803 88.065 L 327.414 88.451 328.019 87.965 C 329.811 86.525,329.202 80.562,327.207 80.008 C 326.315 79.761,326.243 79.777,325.765 80.346 M327.808 81.666 C 328.318 83.128,328.142 86.764,327.552 86.956 C 326.851 87.185,326.342 82.209,326.987 81.433 C 327.322 81.029,327.615 81.112,327.808 81.666 M70.181 98.682 C 71.923 100.569,69.830 100.981,58.500 100.981 C 47.407 100.981,46.309 100.780,46.830 98.846 C 47.068 97.962,46.141 98.028,58.484 98.013 L 69.551 98.000 70.181 98.682 M66.889 103.810 C 70.150 103.906,70.550 103.948,70.750 104.222 C 71.064 104.651,70.772 105.402,70.091 105.922 L 69.552 106.333 61.568 106.312 C 49.411 106.279,47.360 106.188,46.983 105.667 C 46.027 104.345,46.470 103.957,49.083 103.823 C 51.665 103.690,62.549 103.682,66.889 103.810 M63.994 109.218 C 65.202 109.634,65.297 110.800,64.186 111.570 L 63.532 112.023 58.641 111.970 L 53.750 111.917 52.917 111.320 C 51.764 110.494,51.884 109.720,53.250 109.158 C 53.796 108.934,63.323 108.987,63.994 109.218 " stroke="none" fill="#655c54" fill-rule="evenodd"></path><path id="path4" d="M51.055 15.367 C 50.636 15.914,50.514 16.601,50.663 17.583 C 50.746 18.133,50.918 19.296,51.045 20.167 C 51.418 22.725,52.065 23.629,53.075 23.005 C 53.709 22.614,53.835 22.126,53.478 21.458 C 53.374 21.264,53.184 20.200,53.057 19.094 C 52.728 16.233,51.765 14.441,51.055 15.367 M64.770 16.718 C 64.261 17.792,64.160 18.208,64.066 19.611 C 64.006 20.513,63.864 21.527,63.751 21.866 C 63.556 22.448,63.571 22.505,64.017 22.933 L 64.489 23.385 65.150 22.947 C 65.852 22.483,65.798 22.635,66.088 20.287 C 66.136 19.895,66.288 19.358,66.426 19.093 C 66.784 18.402,66.926 16.330,66.640 15.961 C 66.003 15.136,65.407 15.377,64.770 16.718 M37.917 20.621 C 37.124 20.815,36.938 21.441,37.458 22.165 C 37.619 22.387,37.900 22.848,38.083 23.189 C 39.683 26.158,40.175 26.874,40.927 27.318 C 41.681 27.762,41.640 27.772,41.934 27.068 C 42.182 26.474,42.176 26.453,41.300 24.720 C 39.729 21.610,39.591 21.378,39.059 20.936 C 38.522 20.489,38.489 20.480,37.917 20.621 M78.667 20.691 C 78.220 20.867,77.252 22.083,76.980 22.809 C 76.822 23.230,76.634 23.543,75.602 25.108 C 75.134 25.816,75.023 26.450,75.243 27.145 C 75.558 28.138,77.540 26.844,78.018 25.333 C 78.192 24.782,78.334 24.528,79.371 22.917 C 80.390 21.333,80.018 20.157,78.667 20.691 M26.741 30.049 L 26.297 30.431 26.694 31.017 C 27.923 32.828,31.369 35.500,32.475 35.500 C 32.615 35.500,33.000 34.772,33.000 34.507 C 33.000 34.113,29.004 30.425,28.050 29.938 C 27.359 29.586,27.270 29.594,26.741 30.049 M89.083 29.945 C 87.761 30.644,84.333 34.008,84.333 34.606 C 84.333 35.728,86.007 35.423,87.359 34.056 C 87.849 33.560,88.441 33.050,88.675 32.924 C 89.187 32.645,90.376 31.511,90.745 30.948 C 91.388 29.966,90.293 29.304,89.083 29.945 M19.917 42.152 C 18.958 42.343,19.162 43.696,20.182 43.920 C 20.453 43.980,20.879 44.200,21.129 44.409 C 21.379 44.618,21.990 44.877,22.488 44.983 C 22.985 45.089,23.643 45.331,23.950 45.521 C 24.655 45.956,26.378 46.142,26.761 45.824 C 27.339 45.345,26.827 44.298,25.862 43.985 C 25.525 43.876,25.063 43.658,24.833 43.500 C 24.604 43.342,24.127 43.160,23.772 43.095 C 23.418 43.030,22.743 42.805,22.272 42.594 C 21.259 42.140,20.599 42.016,19.917 42.152 M95.652 42.159 C 95.415 42.231,95.040 42.406,94.819 42.548 C 94.598 42.690,94.093 42.892,93.697 42.996 C 91.812 43.493,89.883 45.116,90.474 45.707 C 90.811 46.044,92.358 45.948,93.006 45.550 C 93.323 45.355,94.027 45.114,94.570 45.015 C 95.112 44.916,95.686 44.717,95.844 44.574 C 96.002 44.430,96.493 44.184,96.935 44.026 C 98.986 43.292,97.766 41.519,95.652 42.159 M17.700 56.164 C 17.041 56.320,17.072 56.288,16.949 56.940 C 16.735 58.062,19.357 58.515,23.228 58.026 C 25.036 57.798,25.493 56.828,24.072 56.235 C 23.454 55.976,18.715 55.924,17.700 56.164 M93.098 56.174 C 92.197 56.443,92.011 57.457,92.792 57.835 C 93.284 58.074,98.652 58.290,99.402 58.102 C 100.349 57.864,100.549 56.948,99.797 56.292 C 99.426 55.968,94.099 55.874,93.098 56.174 M91.024 68.298 C 89.937 69.236,90.997 70.439,93.459 71.063 C 94.033 71.208,94.679 71.443,94.895 71.584 C 95.443 71.944,97.413 72.113,97.753 71.831 C 98.285 71.389,97.610 70.009,96.857 69.995 C 96.706 69.992,96.135 69.767,95.588 69.495 C 95.040 69.223,94.432 69.000,94.237 69.000 C 94.042 69.000,93.553 68.825,93.150 68.611 C 92.088 68.049,91.426 67.951,91.024 68.298 M24.250 68.583 C 23.792 68.811,23.238 68.998,23.019 68.998 C 21.800 69.003,18.974 70.925,19.225 71.579 C 19.468 72.212,21.395 72.175,22.640 71.513 C 22.976 71.335,23.550 71.097,23.917 70.985 C 25.679 70.445,26.688 69.685,26.634 68.938 L 26.583 68.250 25.833 68.209 C 25.307 68.181,24.835 68.292,24.250 68.583 M31.917 78.968 C 30.499 79.143,26.080 83.069,26.315 83.945 C 26.567 84.888,27.529 84.729,29.000 83.500 C 29.229 83.309,29.810 82.842,30.292 82.463 C 30.773 82.084,31.167 81.723,31.167 81.660 C 31.167 81.597,31.472 81.334,31.845 81.075 C 33.297 80.069,33.341 78.793,31.917 78.968 M84.883 79.018 C 83.933 79.292,84.228 80.035,85.844 81.440 C 86.252 81.794,86.915 82.405,87.319 82.797 C 89.082 84.514,90.463 84.992,90.807 84.004 C 91.082 83.214,86.470 78.714,85.523 78.848 C 85.465 78.857,85.177 78.933,84.883 79.018 M40.882 86.761 C 40.588 86.890,40.260 87.165,40.153 87.373 C 40.047 87.580,39.787 87.938,39.577 88.167 C 39.367 88.396,39.114 88.893,39.013 89.272 C 38.913 89.651,38.722 90.051,38.590 90.162 C 38.253 90.441,37.167 92.679,37.167 93.093 C 37.167 94.643,39.383 93.630,39.983 91.805 C 40.093 91.469,40.298 91.099,40.437 90.983 C 40.577 90.867,40.846 90.467,41.035 90.094 C 41.224 89.722,41.519 89.238,41.690 89.019 C 42.043 88.567,42.099 87.565,41.807 86.925 C 41.587 86.443,41.603 86.446,40.882 86.761 M75.237 87.080 C 74.941 87.532,75.089 88.287,75.581 88.831 C 75.715 88.979,75.930 89.398,76.058 89.762 C 76.276 90.379,76.658 91.035,77.507 92.250 C 77.699 92.525,78.003 92.998,78.182 93.302 C 78.469 93.789,78.579 93.847,79.122 93.802 C 80.348 93.699,80.056 91.616,78.590 90.000 C 78.382 89.771,78.127 89.329,78.023 89.018 C 77.361 87.037,75.921 86.036,75.237 87.080 " stroke="none" fill="#044ed0" fill-rule="evenodd"></path></g></svg>